g Chair
v 0.3302719 1.021323 -0.2420055
v 0.4568202 1.021323 -0.2420055
v 0.4568202 0.5165764 -0.2420056
v 0.3302719 0.5165777 -0.2420056
v 0.4568202 1.021323 0.2391254
v 0.4568202 1.021323 0.3544393
v 0.3302719 1.021323 0.3544393
v 0.3302719 1.021323 0.2391254
v 0.4568202 1.021323 -0.3502314
v 0.4568202 1.021323 -0.2420055
v 0.3302719 1.021323 -0.2420055
v 0.3302719 1.021323 -0.3502314
v 0.3302719 0.5165771 0.2391254
v 0.3302719 1.021323 0.2391254
v 0.3302719 1.021323 0.3544393
v 0.3302719 0.5165775 0.3544393
v 0.4568202 1.021323 0.2391254
v 0.3302719 1.021323 0.2391254
v 0.3302719 0.5165771 0.2391254
v 0.4568202 0.5165764 0.2391254
v 0.3302719 1.021323 -0.2420055
v 0.3302719 0.5165777 -0.2420056
v 0.3302719 0.5165769 -0.3502315
v 0.3302719 1.021323 -0.3502314
v -0.2492022 0.41207 -0.3502315
v -0.2492022 0.5165764 -0.3502315
v -0.2492022 0.5165764 0.3544393
v -0.2492022 0.4120699 0.3544393
v -0.2492022 0.41207 -0.2434398
v -0.2492022 0.003568966 -0.3502315
v -0.2492022 0.003568958 -0.2434399
v -0.2492022 0.003568913 0.3544392
v -0.2492022 0.003568922 0.2313871
v -0.2492022 0.4120699 0.2313871
v 0.4568202 0.4120699 0.3544393
v 0.4568202 0.41207 -0.3502315
v -0.2492022 0.41207 -0.3502315
v -0.2492022 0.4120699 0.3544393
v -0.2110306 0.5165763 -0.3106875
v -0.1696018 0.5469266 -0.2591761
v -0.1696018 0.5469265 0.2633844
v -0.2110306 0.5165762 0.3148973
v -0.2492022 0.5165764 -0.3502315
v 0.4568202 0.41207 -0.3502315
v 0.4568219 0.5165764 -0.3502315
v -0.2492022 0.41207 -0.3502315
v -0.2492022 0.003568966 -0.3502315
v -0.136745 0.003568966 -0.3502315
v -0.136745 0.41207 -0.3502315
v 0.3302719 0.003568907 -0.3502315
v 0.4568202 0.003568907 -0.3502315
v 0.3302719 0.41207 -0.3502315
v 0.4568202 0.4120699 0.3544393
v -0.2492022 0.5165764 0.3544393
v 0.4568219 0.5165764 0.3544393
v -0.2492022 0.4120699 0.3544393
v 0.3302719 0.003568853 0.3544392
v 0.3302719 0.4120699 0.3544393
v 0.4568202 0.003568853 0.3544392
v -0.136745 0.4120699 0.3544393
v -0.2492022 0.003568913 0.3544392
v -0.136745 0.003568913 0.3544392
v 0.4568202 0.41207 -0.3502315
v 0.4568219 0.5165764 0.3544393
v 0.4568219 0.5165764 -0.3502315
v 0.4568202 0.4120699 0.3544393
v 0.4568202 0.003568907 -0.3502315
v 0.4568202 0.41207 -0.2420056
v 0.4568202 0.003568898 -0.2420056
v 0.4568202 0.003568853 0.3544392
v 0.4568202 0.4120699 0.2391254
v 0.4568202 0.003568862 0.2391253
v -0.1696018 0.5469266 -0.2591761
v 0.2695734 0.5469271 -0.2591761
v 0.2695734 0.5469276 0.2633844
v -0.1696018 0.5469265 0.2633844
v -0.2110306 0.5165762 0.3148973
v -0.1696018 0.5469265 0.2633844
v 0.2695734 0.5469276 0.2633844
v 0.3110025 0.5165777 0.3148973
v 0.3110025 0.516577 -0.3106875
v 0.2695734 0.5469271 -0.2591761
v -0.1696018 0.5469266 -0.2591761
v -0.2110306 0.5165763 -0.3106875
v 0.3110025 0.516577 -0.3106875
v 0.3110025 0.5165777 0.3148973
v 0.2695734 0.5469276 0.2633844
v 0.2695734 0.5469271 -0.2591761
v -0.2492022 0.5165764 -0.3502315
v 0.4568219 0.5165764 -0.3502315
v 0.4568219 0.5165764 0.3544393
v -0.2492022 0.5165764 0.3544393
v 0.4568202 1.021323 -0.3502314
v 0.4568202 0.5165764 -0.3502315
v 0.4568202 0.5165764 -0.2420056
v 0.4568202 1.021323 -0.2420055
v 0.3302719 1.021323 -0.3502314
v 0.3302719 0.5165769 -0.3502315
v 0.4568202 0.5165764 -0.3502315
v 0.4568202 1.021323 -0.3502314
v 0.4568202 1.021323 0.2391254
v 0.4568202 0.5165764 0.2391254
v 0.4568202 0.5165764 0.3544393
v 0.4568202 1.021323 0.3544393
v 0.3302719 1.021323 0.3544393
v 0.4568202 1.021323 0.3544393
v 0.4568202 0.5165764 0.3544393
v 0.3302719 0.5165775 0.3544393
v 0.4568202 0.003568862 0.2391253
v 0.4568202 0.4120699 0.2391254
v 0.3302719 0.4120699 0.2391253
v 0.3302719 0.003568862 0.2391253
v 0.3302719 0.003568862 0.2391253
v 0.3302719 0.4120699 0.2391253
v 0.3302719 0.4120699 0.3544393
v 0.3302719 0.003568853 0.3544392
v 0.3302719 0.003568898 -0.2420056
v 0.3302719 0.41207 -0.2420056
v 0.4568202 0.41207 -0.2420056
v 0.4568202 0.003568898 -0.2420056
v 0.3302719 0.003568898 -0.2420056
v 0.3302719 0.003568907 -0.3502315
v 0.3302719 0.41207 -0.3502315
v 0.3302719 0.41207 -0.2420056
v -0.2492022 0.4120699 0.2313871
v -0.2492022 0.003568922 0.2313871
v -0.136745 0.003568922 0.2313871
v -0.136745 0.4120699 0.2313871
v -0.136745 0.41207 -0.3502315
v -0.136745 0.003568966 -0.3502315
v -0.136745 0.003568958 -0.2434399
v -0.136745 0.41207 -0.2434398
v -0.136745 0.41207 -0.2434398
v -0.136745 0.003568958 -0.2434399
v -0.2492022 0.003568958 -0.2434399
v -0.2492022 0.41207 -0.2434398
v -0.136745 0.4120699 0.2313871
v -0.136745 0.003568922 0.2313871
v -0.136745 0.003568913 0.3544392
v -0.136745 0.4120699 0.3544393
v 0.4568202 0.7306254 -0.2420056
v 0.4568202 0.7306254 0.2391254
v 0.4568202 0.8032998 0.2391254
v 0.4568202 0.8032998 -0.2420056
v 0.4568202 0.8759742 -0.2420056
v 0.4568202 0.8759742 0.2391254
v 0.4568202 0.9486487 0.2391254
v 0.4568202 0.9486487 -0.2420055
v 0.4568202 0.9486487 -0.2420055
v 0.4568202 0.9486487 0.2391254
v 0.3531489 0.9486487 0.2391254
v 0.3531489 0.9486487 -0.2420055
v 0.3531489 0.8759742 0.2391254
v 0.3531489 0.8759742 -0.2420056
v 0.3531489 0.9486487 -0.2420055
v 0.3531489 0.9486487 0.2391254
v 0.3535096 0.7306254 0.2391254
v 0.3535096 0.7306254 -0.2420056
v 0.3535096 0.8032998 -0.2420056
v 0.3535096 0.8032998 0.2391254
v 0.4568202 0.8032998 -0.2420056
v 0.4568202 0.8032998 0.2391254
v 0.3535096 0.8032998 0.2391254
v 0.3535096 0.8032998 -0.2420056
v 0.4568202 0.7306254 -0.2420056
v 0.3535096 0.7306254 -0.2420056
v 0.3535096 0.7306254 0.2391254
v 0.4568202 0.7306254 0.2391254
v 0.4568202 0.8759742 -0.2420056
v 0.3531489 0.8759742 -0.2420056
v 0.3531489 0.8759742 0.2391254
v 0.4568202 0.8759742 0.2391254
vt 0.2154933 0.9145697
vt 0.2154933 0.9145697
vt 0.2154933 0.9145697
vt 0.2154933 0.9145697
vt 0.2154933 0.9145697
vt 0.2154933 0.9145697
vt 0.2154933 0.9145697
vt 0.2154933 0.9145697
vt 0.2154933 0.9145697
vt 0.2154933 0.9145697
vt 0.2154933 0.9145697
vt 0.2154933 0.9145697
vt 0.2154933 0.9145697
vt 0.2154933 0.9145697
vt 0.2154933 0.9145697
vt 0.2154933 0.9145697
vt 0.2154933 0.9145697
vt 0.2154933 0.9145697
vt 0.2154933 0.9145697
vt 0.2154933 0.9145697
vt 0.2154933 0.9145697
vt 0.2154933 0.9145697
vt 0.2154933 0.9145697
vt 0.2154933 0.9145697
vt 0.2154933 0.9145697
vt 0.2154933 0.9145697
vt 0.2154933 0.9145697
vt 0.2154933 0.9145697
vt 0.2154933 0.9145697
vt 0.2154933 0.9145697
vt 0.2154933 0.9145697
vt 0.2154933 0.9145697
vt 0.2154933 0.9145697
vt 0.2154933 0.9145697
vt 0.2154933 0.9145697
vt 0.2154933 0.9145697
vt 0.2154933 0.9145697
vt 0.2154933 0.9145697
vt 0.8373701 0.9100584
vt 0.8373701 0.9100584
vt 0.8373701 0.9100584
vt 0.8373701 0.9100584
vt 0.2154933 0.9145697
vt 0.2154933 0.9145697
vt 0.2154933 0.9145697
vt 0.2154933 0.9145697
vt 0.2154933 0.9145697
vt 0.2154933 0.9145697
vt 0.2154933 0.9145697
vt 0.2154933 0.9145697
vt 0.2154933 0.9145697
vt 0.2154933 0.9145697
vt 0.2154933 0.9145697
vt 0.2154933 0.9145697
vt 0.2154933 0.9145697
vt 0.2154933 0.9145697
vt 0.2154933 0.9145697
vt 0.2154933 0.9145697
vt 0.2154933 0.9145697
vt 0.2154933 0.9145697
vt 0.2154933 0.9145697
vt 0.2154933 0.9145697
vt 0.2154933 0.9145697
vt 0.2154933 0.9145697
vt 0.2154933 0.9145697
vt 0.2154933 0.9145697
vt 0.2154933 0.9145697
vt 0.2154933 0.9145697
vt 0.2154933 0.9145697
vt 0.2154933 0.9145697
vt 0.2154933 0.9145697
vt 0.2154933 0.9145697
vt 0.7933104 0.9153254
vt 0.7933104 0.9153254
vt 0.7933104 0.9153254
vt 0.7933104 0.9153254
vt 0.8373701 0.9100584
vt 0.8373701 0.9100584
vt 0.8373701 0.9100584
vt 0.8373701 0.9100584
vt 0.8373701 0.9100584
vt 0.8373701 0.9100584
vt 0.8373701 0.9100584
vt 0.8373701 0.9100584
vt 0.8373701 0.9100584
vt 0.8373701 0.9100584
vt 0.8373701 0.9100584
vt 0.8373701 0.9100584
vt 0.2154933 0.9145697
vt 0.2154933 0.9145697
vt 0.2154933 0.9145697
vt 0.2154933 0.9145697
vt 0.2154933 0.9145697
vt 0.2154933 0.9145697
vt 0.2154933 0.9145697
vt 0.2154933 0.9145697
vt 0.2154933 0.9145697
vt 0.2154933 0.9145697
vt 0.2154933 0.9145697
vt 0.2154933 0.9145697
vt 0.2154933 0.9145697
vt 0.2154933 0.9145697
vt 0.2154933 0.9145697
vt 0.2154933 0.9145697
vt 0.2154933 0.9145697
vt 0.2154933 0.9145697
vt 0.2154933 0.9145697
vt 0.2154933 0.9145697
vt 0.2154933 0.9145697
vt 0.2154933 0.9145697
vt 0.2154933 0.9145697
vt 0.2154933 0.9145697
vt 0.2154933 0.9145697
vt 0.2154933 0.9145697
vt 0.2154933 0.9145697
vt 0.2154933 0.9145697
vt 0.2154933 0.9145697
vt 0.2154933 0.9145697
vt 0.2154933 0.9145697
vt 0.2154933 0.9145697
vt 0.2154933 0.9145697
vt 0.2154933 0.9145697
vt 0.2154933 0.9145697
vt 0.2154933 0.9145697
vt 0.2154933 0.9145697
vt 0.2154933 0.9145697
vt 0.2154933 0.9145697
vt 0.2154933 0.9145697
vt 0.2154933 0.9145697
vt 0.2154933 0.9145697
vt 0.2154933 0.9145697
vt 0.2154933 0.9145697
vt 0.2154933 0.9145697
vt 0.2154933 0.9145697
vt 0.2154933 0.9145697
vt 0.2154933 0.9145697
vt 0.2154933 0.9145697
vt 0.2154933 0.9145697
vt 0.2154933 0.9145697
vt 0.2154933 0.9145697
vt 0.2154933 0.9145697
vt 0.2154933 0.9145697
vt 0.2154933 0.9145697
vt 0.2154933 0.9145697
vt 0.2154933 0.9145697
vt 0.2154933 0.9145697
vt 0.2154933 0.9145697
vt 0.2154933 0.9145697
vt 0.2154933 0.9145697
vt 0.2154933 0.9145697
vt 0.2154933 0.9145697
vt 0.2154933 0.9145697
vt 0.2154933 0.9145697
vt 0.2154933 0.9145697
vt 0.2154933 0.9145697
vt 0.2154933 0.9145697
vt 0.2154933 0.9145697
vt 0.2154933 0.9145697
vt 0.2154933 0.9145697
vt 0.2154933 0.9145697
vt 0.2154933 0.9145697
vt 0.2154933 0.9145697
vt 0.2154933 0.9145697
vt 0.2154933 0.9145697
vt 0.2154933 0.9145697
vt 0.2154933 0.9145697
vt 0.2154933 0.9145697
vt 0.2154933 0.9145697
vt 0.2154933 0.9145697
vt 0.2154933 0.9145697
vt 0.2154933 0.9145697
vt 0.2154933 0.9145697
vn 0 0 1
vn 0 0 1
vn 0 0 1
vn 0 0 1
vn 0 1 0
vn 0 1 0
vn 0 1 0
vn 0 1 0
vn 0 1 0
vn 0 1 0
vn 0 1 0
vn 0 1 0
vn -1 0 0
vn -1 0 0
vn -1 0 0
vn -1 0 0
vn 0 0 -1
vn 0 0 -1
vn 0 0 -1
vn 0 0 -1
vn -1 0 0
vn -1 0 0
vn -1 0 0
vn -1 0 0
vn -1 0 0
vn -1 0 0
vn -1 0 0
vn -1 0 0
vn -1 0 0
vn -1 0 0
vn -1 0 0
vn -1 0 0
vn -1 0 0
vn -1 0 0
vn 0 -1 0
vn 0 -1 0
vn 0 -1 0
vn 0 -1 0
vn -0.5909727 0.8066915 0
vn -0.5909727 0.8066915 0
vn -0.5909727 0.8066915 0
vn -0.5909727 0.8066915 0
vn 0 0 -1
vn 0 0 -1
vn 0 0 -1
vn 0 0 -1
vn 0 0 -1
vn 0 0 -1
vn 0 0 -1
vn 0 0 -1
vn 0 0 -1
vn 0 0 -1
vn 0 0 1
vn 0 0 1
vn 0 0 1
vn 0 0 1
vn 0 0 1
vn 0 0 1
vn 0 0 1
vn 0 0 1
vn 0 0 1
vn 0 0 1
vn 1 -1.699691E-05 0
vn 1 -1.699691E-05 0
vn 1 -1.699691E-05 0
vn 1 -1.699691E-05 0
vn 1 0 0
vn 1 0 0
vn 1 0 0
vn 1 0 0
vn 1 0 0
vn 1 0 0
vn 0 1 0
vn 0 1 0
vn 0 1 0
vn 0 1 0
vn 0 0.8615791 0.5076234
vn 0 0.8615791 0.5076234
vn 0 0.8615791 0.5076234
vn 0 0.8615791 0.5076234
vn 0 0.8615723 -0.5076349
vn 0 0.8615723 -0.5076349
vn 0 0.8615723 -0.5076349
vn 0 0.8615723 -0.5076349
vn 0.590967 0.8066958 0
vn 0.590967 0.8066958 0
vn 0.590967 0.8066958 0
vn 0.590967 0.8066958 0
vn 0 1 0
vn 0 1 0
vn 0 1 0
vn 0 1 0
vn 1 0 0
vn 1 0 0
vn 1 0 0
vn 1 0 0
vn 0 0 -1
vn 0 0 -1
vn 0 0 -1
vn 0 0 -1
vn 1 0 0
vn 1 0 0
vn 1 0 0
vn 1 0 0
vn 0 0 1
vn 0 0 1
vn 0 0 1
vn 0 0 1
vn 0 0 -1
vn 0 0 -1
vn 0 0 -1
vn 0 0 -1
vn -1 0 0
vn -1 0 0
vn -1 0 0
vn -1 0 0
vn 0 0 1
vn 0 0 1
vn 0 0 1
vn 0 0 1
vn -1 0 0
vn -1 0 0
vn -1 0 0
vn -1 0 0
vn 0 0 -1
vn 0 0 -1
vn 0 0 -1
vn 0 0 -1
vn 1 0 0
vn 1 0 0
vn 1 0 0
vn 1 0 0
vn 0 0 1
vn 0 0 1
vn 0 0 1
vn 0 0 1
vn 1 0 0
vn 1 0 0
vn 1 0 0
vn 1 0 0
vn 1 0 0
vn 1 0 0
vn 1 0 0
vn 1 0 0
vn 1 0 0
vn 1 0 0
vn 1 0 0
vn 1 0 0
vn 0 1 0
vn 0 1 0
vn 0 1 0
vn 0 1 0
vn -0.7071069 -0.7071066 0
vn -0.7071068 -0.7071068 0
vn -0.7071067 0.7071068 0
vn -0.7071067 0.7071068 0
vn -0.7071068 -0.7071067 0
vn -0.7071068 -0.7071068 0
vn -0.7071068 0.7071068 0
vn -0.7071068 0.7071067 0
vn 0 1 0
vn 0 1 0
vn 0 1 0
vn 0 1 0
vn 0 -1 0
vn 0 -1 0
vn 0 -1 0
vn 0 -1 0
vn 0 -1 0
vn 0 -1 0
vn 0 -1 0
vn 0 -1 0
g Chair_0
f 3/3/3 2/2/2 1/1/1
f 4/4/4 3/3/3 1/1/1
f 7/7/7 6/6/6 5/5/5
f 8/8/8 7/7/7 5/5/5
f 11/11/11 10/10/10 9/9/9
f 12/12/12 11/11/11 9/9/9
f 15/15/15 14/14/14 13/13/13
f 16/16/16 15/15/15 13/13/13
f 19/19/19 18/18/18 17/17/17
f 20/20/20 19/19/19 17/17/17
f 23/23/23 22/22/22 21/21/21
f 24/24/24 23/23/23 21/21/21
f 27/27/27 26/26/26 25/25/25
f 28/28/28 27/27/27 25/25/25
f 25/25/25 30/30/30 29/29/29
f 30/30/30 31/31/31 29/29/29
f 33/33/33 32/32/32 28/28/28
f 34/34/34 33/33/33 28/28/28
f 37/37/37 36/36/36 35/35/35
f 38/38/38 37/37/37 35/35/35
f 41/41/41 40/40/40 39/39/39
f 42/42/42 41/41/41 39/39/39
f 45/45/45 44/44/44 43/43/43
f 44/44/44 46/46/46 43/43/43
f 48/48/48 47/47/47 46/46/46
f 49/49/49 48/48/48 46/46/46
f 44/44/44 51/51/51 50/50/50
f 52/52/52 44/44/44 50/50/50
f 55/55/55 54/54/54 53/53/53
f 54/54/54 56/56/56 53/53/53
f 53/53/53 58/58/58 57/57/57
f 59/59/59 53/53/53 57/57/57
f 56/56/56 61/61/61 60/60/60
f 61/61/61 62/62/62 60/60/60
f 65/65/65 64/64/64 63/63/63
f 64/64/64 66/66/66 63/63/63
f 63/63/63 68/68/68 67/67/67
f 68/68/68 69/69/69 67/67/67
f 71/71/71 66/66/66 70/70/70
f 72/72/72 71/71/71 70/70/70
f 75/75/75 74/74/74 73/73/73
f 76/76/76 75/75/75 73/73/73
f 79/79/79 78/78/78 77/77/77
f 80/80/80 79/79/79 77/77/77
f 83/83/83 82/82/82 81/81/81
f 84/84/84 83/83/83 81/81/81
f 87/87/87 86/86/86 85/85/85
f 88/88/88 87/87/87 85/85/85
f 91/91/91 90/90/90 89/89/89
f 92/92/92 91/91/91 89/89/89
f 95/95/95 94/94/94 93/93/93
f 96/96/96 95/95/95 93/93/93
f 99/99/99 98/98/98 97/97/97
f 100/100/100 99/99/99 97/97/97
f 103/103/103 102/102/102 101/101/101
f 104/104/104 103/103/103 101/101/101
f 107/107/107 106/106/106 105/105/105
f 108/108/108 107/107/107 105/105/105
f 111/111/111 110/110/110 109/109/109
f 112/112/112 111/111/111 109/109/109
f 115/115/115 114/114/114 113/113/113
f 116/116/116 115/115/115 113/113/113
f 119/119/119 118/118/118 117/117/117
f 120/120/120 119/119/119 117/117/117
f 123/123/123 122/122/122 121/121/121
f 124/124/124 123/123/123 121/121/121
f 127/127/127 126/126/126 125/125/125
f 128/128/128 127/127/127 125/125/125
f 131/131/131 130/130/130 129/129/129
f 132/132/132 131/131/131 129/129/129
f 135/135/135 134/134/134 133/133/133
f 136/136/136 135/135/135 133/133/133
f 139/139/139 138/138/138 137/137/137
f 140/140/140 139/139/139 137/137/137
f 143/143/143 142/142/142 141/141/141
f 144/144/144 143/143/143 141/141/141
f 147/147/147 146/146/146 145/145/145
f 148/148/148 147/147/147 145/145/145
f 151/151/151 150/150/150 149/149/149
f 152/152/152 151/151/151 149/149/149
f 155/155/155 154/154/154 153/153/153
f 156/156/156 155/155/155 153/153/153
f 159/159/159 158/158/158 157/157/157
f 160/160/160 159/159/159 157/157/157
f 163/163/163 162/162/162 161/161/161
f 164/164/164 163/163/163 161/161/161
f 167/167/167 166/166/166 165/165/165
f 168/168/168 167/167/167 165/165/165
f 171/171/171 170/170/170 169/169/169
f 172/172/172 171/171/171 169/169/169
