g S2Table03_02
v -2.980232E-07 0.9153897 -0.623245
v 0.5469468 0.9153897 -0.623245
v 0.5465892 0.9807437 -0.623245
v -2.980232E-07 0.9807437 -0.623245
v -0.5469474 0.9153897 -0.623245
v -0.5465898 0.9807437 -0.623245
v 0.6232447 0.9153897 -0.5469471
v 0.5469468 0.9153897 -0.623245
v -2.980232E-07 0.9153897 -0.623245
v -2.980232E-07 0.9153896 0.6232451
v -0.5469474 0.9153897 -0.623245
v 0.6232447 0.9153897 6.911E-08
v -0.6232453 0.9153897 -0.5469471
v 0.6232447 0.9153896 0.5469472
v 0.5469468 0.9153896 0.6232451
v -0.6232453 0.9153897 6.911E-08
v -0.6232453 0.9153896 0.5469472
v -0.5469474 0.9153896 0.6232451
v -2.980232E-07 0.9153896 0.6232451
v -0.5469474 0.9153896 0.6232451
v -0.5465898 0.9807436 0.6232451
v -2.980232E-07 0.9807436 0.6232451
v 0.5469468 0.9153896 0.6232451
v 0.5465892 0.9807436 0.6232451
v 0.6232447 0.9153897 6.911E-08
v 0.6232447 0.9153896 0.5469472
v 0.6232447 0.9807436 0.5465896
v 0.6232447 0.9807436 7.404409E-08
v 0.6232447 0.9153897 -0.5469471
v 0.6232447 0.9807437 -0.5465895
v -0.6232453 0.9153897 6.911E-08
v -0.6232453 0.9153897 -0.5469471
v -0.6232453 0.9807437 -0.5465895
v -0.6232453 0.9807436 7.404409E-08
v -0.6232453 0.9153896 0.5469472
v -0.6232453 0.9807436 0.5465896
v 0.5575898 -0.002073443 0.4802192
v 0.5575898 0.9153896 0.4802192
v 0.4802188 0.9153896 0.5575902
v 0.4802188 -0.002073449 0.5575901
v -0.6232453 -0.002073366 -0.5465896
v -0.6232453 0.9153897 -0.5465895
v -0.5575904 0.9153897 -0.4802191
v -0.5575904 -0.002073371 -0.4802192
v 0.4802188 -0.002073449 0.5575901
v 0.4802188 0.9153896 0.5575902
v 0.5465892 0.9153896 0.6232451
v 0.5465892 -0.002073454 0.6232451
v -0.5575904 -0.002073371 -0.4802192
v -0.5575904 0.9153897 -0.4802191
v -0.4802194 0.9153897 -0.5575901
v -0.4802194 -0.002073365 -0.5575901
v -0.4802194 -0.002073449 0.5575901
v -0.4802194 0.9153896 0.5575902
v -0.5575904 0.9153896 0.4802192
v -0.5575904 -0.002073443 0.4802192
v 0.5465892 -0.002073454 0.6232451
v 0.5465892 0.9153896 0.6232451
v 0.6232447 0.9153896 0.5465896
v 0.6232447 -0.002073448 0.5465896
v -0.4802194 -0.002073365 -0.5575901
v -0.4802194 0.9153897 -0.5575901
v -0.5465898 0.9153897 -0.623245
v -0.5465898 -0.00207336 -0.6232451
v -0.5575904 -0.002073443 0.4802192
v -0.5575904 0.9153896 0.4802192
v -0.6232453 0.9153896 0.5465896
v -0.6232453 -0.002073448 0.5465896
v 0.6232447 -0.002073366 -0.5465896
v 0.6232447 0.9153897 -0.5465895
v 0.5465892 0.9153897 -0.623245
v 0.5465892 -0.00207336 -0.6232451
v -0.5465898 -0.002073454 0.6232451
v -0.5465898 0.9153896 0.6232451
v -0.4802194 0.9153896 0.5575902
v -0.4802194 -0.002073449 0.5575901
v -0.5465898 -0.00207336 -0.6232451
v -0.5465898 0.9153897 -0.623245
v -0.6232453 0.9153897 -0.5465895
v -0.6232453 -0.002073366 -0.5465896
v 0.5465892 -0.00207336 -0.6232451
v 0.5465892 0.9153897 -0.623245
v 0.4802188 0.9153897 -0.5575901
v 0.4802188 -0.002073365 -0.5575901
v -0.6232453 -0.002073366 -0.5465896
v -0.5575904 -0.002073371 -0.4802192
v -0.4802194 -0.002073365 -0.5575901
v -0.5465898 -0.00207336 -0.6232451
v 0.5465892 -0.00207336 -0.6232451
v 0.4802188 -0.002073365 -0.5575901
v 0.5575898 -0.002073371 -0.4802192
v 0.6232447 -0.002073366 -0.5465896
v -0.5575904 -0.002073443 0.4802192
v -0.6232453 -0.002073448 0.5465896
v -0.5465898 -0.002073454 0.6232451
v -0.4802194 -0.002073449 0.5575901
v 0.6232447 -0.002073448 0.5465896
v 0.5575898 -0.002073443 0.4802192
v 0.4802188 -0.002073449 0.5575901
v 0.5465892 -0.002073454 0.6232451
v 0.5465892 0.9807436 0.6232451
v 0.6232447 0.9807436 0.5465896
v 0.6232447 0.9153896 0.5469472
v 0.5469468 0.9153896 0.6232451
v 0.6232447 0.9807437 -0.5465895
v 0.5465892 0.9807437 -0.623245
v 0.5469468 0.9153897 -0.623245
v 0.6232447 0.9153897 -0.5469471
v -0.5465898 0.9807437 -0.623245
v -0.6232453 0.9807437 -0.5465895
v -0.6232453 0.9153897 -0.5469471
v -0.5469474 0.9153897 -0.623245
v -0.5469474 0.9153896 0.6232451
v -0.6232453 0.9153896 0.5469472
v -0.6232453 0.9807436 0.5465896
v -0.5465898 0.9807436 0.6232451
v 0.5575898 -0.002073371 -0.4802192
v 0.5575898 0.9153897 -0.4802191
v 0.6232447 0.9153897 -0.5465895
v 0.6232447 -0.002073366 -0.5465896
v 0.6232447 -0.002073448 0.5465896
v 0.6232447 0.9153896 0.5465896
v 0.5575898 0.9153896 0.4802192
v 0.5575898 -0.002073443 0.4802192
v 0.4802188 -0.002073365 -0.5575901
v 0.4802188 0.9153897 -0.5575901
v 0.5575898 0.9153897 -0.4802191
v 0.5575898 -0.002073371 -0.4802192
v -0.6232453 -0.002073448 0.5465896
v -0.6232453 0.9153896 0.5465896
v -0.5465898 0.9153896 0.6232451
v -0.5465898 -0.002073454 0.6232451
v -0.5360385 0.9807437 -0.4802191
v -0.4802194 0.9807437 -0.5309181
v -2.980232E-07 0.9807437 -0.5309181
v -0.002498869 0.9807437 -0.2093983
v 0.4802188 0.9807437 -0.5309181
v 0.5360379 0.9807437 -0.4802191
v -0.5360385 0.9807436 7.404409E-08
v 0.5360379 0.9807436 7.404409E-08
v 0.05332266 0.9807437 -0.05332282
v 0.2093982 0.9807437 0.002498748
v -0.05461115 0.9807437 -0.05461073
v -0.2093986 0.9807437 -0.002498493
v -0.05332325 0.9807437 0.0533231
v 0.5360379 0.9807436 0.4802192
v -0.5360385 0.9807436 0.4802192
v 0.05461056 0.9807437 0.05461101
v 0.002498372 0.9807437 0.2093986
v -2.980232E-07 0.9807436 0.5309182
v -0.4802194 0.9807436 0.5309182
v 0.4802188 0.9807436 0.5309182
v -0.05461115 0.9807437 -0.05461073
v -0.05332325 0.9807437 0.0533231
v -0.2093986 0.9807437 -0.002498493
v -2.437434E-07 0.9807437 1.422691E-07
v -0.002498869 0.9807437 -0.2093983
v 0.002498372 0.9807437 0.2093986
v 0.05332266 0.9807437 -0.05332282
v 0.05461056 0.9807437 0.05461101
v 0.2093982 0.9807437 0.002498748
v 0.6232447 0.9807436 0.5465896
v 0.4802188 0.9807436 0.5309182
v 0.5360379 0.9807436 0.4802192
v 0.5360379 0.9807436 7.404409E-08
v 0.5465892 0.9807436 0.6232451
v 0.6232447 0.9807436 7.404409E-08
v -2.980232E-07 0.9807436 0.6232451
v -2.980232E-07 0.9807436 0.5309182
v 0.5360379 0.9807437 -0.4802191
v 0.6232447 0.9807437 -0.5465895
v -0.5465898 0.9807436 0.6232451
v -0.4802194 0.9807436 0.5309182
v 0.5465892 0.9807437 -0.623245
v 0.4802188 0.9807437 -0.5309181
v -2.980232E-07 0.9807437 -0.5309181
v -2.980232E-07 0.9807437 -0.623245
v -0.5360385 0.9807436 0.4802192
v -0.6232453 0.9807436 0.5465896
v -0.6232453 0.9807436 7.404409E-08
v -0.5360385 0.9807436 7.404409E-08
v -0.4802194 0.9807437 -0.5309181
v -0.5465898 0.9807437 -0.623245
v -0.6232453 0.9807437 -0.5465895
v -0.5360385 0.9807437 -0.4802191
vt 0.4118999 0.967741
vt 0.4118999 0.967741
vt 0.4118999 0.967741
vt 0.4118999 0.967741
vt 0.4118999 0.967741
vt 0.4118999 0.967741
vt 0.4118999 0.967741
vt 0.4118999 0.967741
vt 0.4118999 0.967741
vt 0.4118999 0.967741
vt 0.4118999 0.967741
vt 0.4118999 0.967741
vt 0.4118999 0.967741
vt 0.4118999 0.967741
vt 0.4118999 0.967741
vt 0.4118999 0.967741
vt 0.4118999 0.967741
vt 0.4118999 0.967741
vt 0.4118999 0.967741
vt 0.4118999 0.967741
vt 0.4118999 0.967741
vt 0.4118999 0.967741
vt 0.4118999 0.967741
vt 0.4118999 0.967741
vt 0.4118999 0.967741
vt 0.4118999 0.967741
vt 0.4118999 0.967741
vt 0.4118999 0.967741
vt 0.4118999 0.967741
vt 0.4118999 0.967741
vt 0.4118999 0.967741
vt 0.4118999 0.967741
vt 0.4118999 0.967741
vt 0.4118999 0.967741
vt 0.4118999 0.967741
vt 0.4118999 0.967741
vt 0.4118999 0.967741
vt 0.4118999 0.967741
vt 0.4118999 0.967741
vt 0.4118999 0.967741
vt 0.4118999 0.967741
vt 0.4118999 0.967741
vt 0.4118999 0.967741
vt 0.4118999 0.967741
vt 0.4118999 0.967741
vt 0.4118999 0.967741
vt 0.4118999 0.967741
vt 0.4118999 0.967741
vt 0.4118999 0.967741
vt 0.4118999 0.967741
vt 0.4118999 0.967741
vt 0.4118999 0.967741
vt 0.4118999 0.967741
vt 0.4118999 0.967741
vt 0.4118999 0.967741
vt 0.4118999 0.967741
vt 0.4118999 0.967741
vt 0.4118999 0.967741
vt 0.4118999 0.967741
vt 0.4118999 0.967741
vt 0.4118999 0.967741
vt 0.4118999 0.967741
vt 0.4118999 0.967741
vt 0.4118999 0.967741
vt 0.4118999 0.967741
vt 0.4118999 0.967741
vt 0.4118999 0.967741
vt 0.4118999 0.967741
vt 0.4118999 0.967741
vt 0.4118999 0.967741
vt 0.4118999 0.967741
vt 0.4118999 0.967741
vt 0.4118999 0.967741
vt 0.4118999 0.967741
vt 0.4118999 0.967741
vt 0.4118999 0.967741
vt 0.4118999 0.967741
vt 0.4118999 0.967741
vt 0.4118999 0.967741
vt 0.4118999 0.967741
vt 0.4118999 0.967741
vt 0.4118999 0.967741
vt 0.4118999 0.967741
vt 0.4118999 0.967741
vt 0.4118999 0.967741
vt 0.4118999 0.967741
vt 0.4118999 0.967741
vt 0.4118999 0.967741
vt 0.4118999 0.967741
vt 0.4118999 0.967741
vt 0.4118999 0.967741
vt 0.4118999 0.967741
vt 0.4118999 0.967741
vt 0.4118999 0.967741
vt 0.4118999 0.967741
vt 0.4118999 0.967741
vt 0.4118999 0.967741
vt 0.4118999 0.967741
vt 0.4118999 0.967741
vt 0.4118999 0.967741
vt 0.4118999 0.967741
vt 0.4118999 0.967741
vt 0.4118999 0.967741
vt 0.4118999 0.967741
vt 0.4118999 0.967741
vt 0.4118999 0.967741
vt 0.4118999 0.967741
vt 0.4118999 0.967741
vt 0.4118999 0.967741
vt 0.4118999 0.967741
vt 0.4118999 0.967741
vt 0.4118999 0.967741
vt 0.4118999 0.967741
vt 0.4118999 0.967741
vt 0.4118999 0.967741
vt 0.4118999 0.967741
vt 0.4118999 0.967741
vt 0.4118999 0.967741
vt 0.4118999 0.967741
vt 0.4118999 0.967741
vt 0.4118999 0.967741
vt 0.4118999 0.967741
vt 0.4118999 0.967741
vt 0.4118999 0.967741
vt 0.4118999 0.967741
vt 0.4118999 0.967741
vt 0.4118999 0.967741
vt 0.4118999 0.967741
vt 0.4118999 0.967741
vt 0.4118999 0.967741
vt 0.4118999 0.967741
vt 0.4118999 0.967741
vt 0.6027137 0.5220619
vt 0.6027137 0.5220619
vt 0.6027137 0.5220619
vt 0.6027137 0.5220619
vt 0.6027137 0.5220619
vt 0.6027137 0.5220619
vt 0.6027137 0.5220619
vt 0.6027137 0.5220619
vt 0.6027137 0.5220619
vt 0.6027137 0.5220619
vt 0.6027137 0.5220619
vt 0.6027137 0.5220619
vt 0.6027137 0.5220619
vt 0.6027137 0.5220619
vt 0.6027137 0.5220619
vt 0.6027137 0.5220619
vt 0.6027137 0.5220619
vt 0.6027137 0.5220619
vt 0.6027137 0.5220619
vt 0.6027137 0.5220619
vt 0.5622251 0.5275273
vt 0.5622251 0.5275273
vt 0.5622251 0.5275273
vt 0.5622251 0.5275273
vt 0.5622251 0.5275273
vt 0.5622251 0.5275273
vt 0.5622251 0.5275273
vt 0.5622251 0.5275273
vt 0.5622251 0.5275273
vt 0.4118999 0.967741
vt 0.4118999 0.967741
vt 0.4118999 0.967741
vt 0.4118999 0.967741
vt 0.4118999 0.967741
vt 0.4118999 0.967741
vt 0.4118999 0.967741
vt 0.4118999 0.967741
vt 0.4118999 0.967741
vt 0.4118999 0.967741
vt 0.4118999 0.967741
vt 0.4118999 0.967741
vt 0.4118999 0.967741
vt 0.4118999 0.967741
vt 0.4118999 0.967741
vt 0.4118999 0.967741
vt 0.4118999 0.967741
vt 0.4118999 0.967741
vt 0.4118999 0.967741
vt 0.4118999 0.967741
vt 0.4118999 0.967741
vt 0.4118999 0.967741
vt 0.4118999 0.967741
vt 0.4118999 0.967741
vn 0 0 -1
vn 0 0 -1
vn 0 0 -1
vn 0 0 -1
vn 0 0 -1
vn 0 0 -1
vn 0 -1 0
vn 0 -1 0
vn 0 -1 0
vn 0 -1 0
vn 0 -1 0
vn 0 -1 0
vn 0 -1 0
vn 0 -1 0
vn 0 -1 0
vn 0 -1 0
vn 0 -1 0
vn 0 -1 0
vn 0 0 1
vn 0 0 1
vn 0 0 1
vn 0 0 1
vn 0 0 1
vn 0 0 1
vn 1 0 0
vn 1 0 0
vn 1 0 0
vn 1 0 0
vn 1 0 0
vn 1 0 0
vn -1 0 0
vn -1 0 0
vn -1 0 0
vn -1 0 0
vn -1 0 0
vn -1 0 0
vn -0.7071068 0 -0.7071067
vn -0.7071068 0 -0.7071067
vn -0.7071068 0 -0.7071067
vn -0.7071068 0 -0.7071067
vn -0.710928 0 0.7032648
vn -0.710928 0 0.7032648
vn -0.710928 0 0.7032648
vn -0.710928 0 0.7032648
vn -0.7032651 0 0.7109277
vn -0.7032651 0 0.7109277
vn -0.7032651 0 0.7109277
vn -0.7032651 0 0.7109277
vn 0.7071069 0 0.7071065
vn 0.7071069 0 0.7071065
vn 0.7071069 0 0.7071065
vn 0.7071069 0 0.7071065
vn 0.7071068 0 -0.7071067
vn 0.7071068 0 -0.7071067
vn 0.7071068 0 -0.7071067
vn 0.7071068 0 -0.7071067
vn 0.707107 0 0.7071065
vn 0.707107 0 0.7071065
vn 0.707107 0 0.7071065
vn 0.707107 0 0.7071065
vn 0.7032644 0 -0.7109284
vn 0.7032644 0 -0.7109284
vn 0.7032644 0 -0.7109284
vn 0.7032644 0 -0.7109284
vn -0.7109281 0 -0.7032647
vn -0.7109281 0 -0.7032647
vn -0.7109281 0 -0.7032647
vn -0.7109281 0 -0.7032647
vn 0.7071067 0 -0.7071068
vn 0.7071067 0 -0.7071068
vn 0.7071067 0 -0.7071068
vn 0.7071067 0 -0.7071068
vn 0.7032651 0 0.7109277
vn 0.7032651 0 0.7109277
vn 0.7032651 0 0.7109277
vn 0.7032651 0 0.7109277
vn -0.7071067 0 -0.7071068
vn -0.7071067 0 -0.7071068
vn -0.7071067 0 -0.7071068
vn -0.7071067 0 -0.7071068
vn -0.7032644 0 -0.7109284
vn -0.7032644 0 -0.7109284
vn -0.7032644 0 -0.7109284
vn -0.7032644 0 -0.7109284
vn 0 -1 0
vn 0 -1 0
vn 0 -1 0
vn 0 -1 0
vn 0 -1 0
vn 0 -1 0
vn 0 -1 0
vn 0 -1 0
vn 0 -1 0
vn 0 -1 0
vn 0 -1 0
vn 0 -1 0
vn 0 -1 0
vn 0 -1 0
vn 0 -1 0
vn 0 -1 0
vn 0.7071015 0.003869233 0.7071015
vn 0.7071015 0.003869233 0.7071015
vn 0.7071015 0.003869233 0.7071015
vn 0.7071015 0.003869233 0.7071015
vn 0.7071013 0.003868975 -0.7071016
vn 0.7071013 0.003868975 -0.7071016
vn 0.7071013 0.003868975 -0.7071016
vn 0.7071013 0.003868975 -0.7071016
vn -0.7071012 0.003869263 -0.7071018
vn -0.7071012 0.003869263 -0.7071018
vn -0.7071012 0.003869263 -0.7071018
vn -0.7071012 0.003869263 -0.7071018
vn -0.7071015 0.003869262 0.7071015
vn -0.7071015 0.003869262 0.7071015
vn -0.7071015 0.003869262 0.7071015
vn -0.7071015 0.003869262 0.7071015
vn 0.710928 0 0.7032648
vn 0.710928 0 0.7032648
vn 0.710928 0 0.7032648
vn 0.710928 0 0.7032648
vn 0.7109281 0 -0.7032647
vn 0.7109281 0 -0.7032647
vn 0.7109281 0 -0.7032647
vn 0.7109281 0 -0.7032647
vn -0.7071069 0 0.7071065
vn -0.7071069 0 0.7071065
vn -0.7071069 0 0.7071065
vn -0.7071069 0 0.7071065
vn -0.707107 0 0.7071065
vn -0.707107 0 0.7071065
vn -0.707107 0 0.7071065
vn -0.707107 0 0.7071065
vn 0 1 0
vn 0 1 0
vn 0 1 0
vn 0 1 0
vn 0 1 0
vn 0 1 0
vn 0 1 0
vn 0 1 0
vn 0 1 0
vn 0 1 0
vn 0 1 0
vn 0 1 0
vn 0 1 0
vn 0 1 0
vn 0 1 0
vn 0 1 0
vn 0 1 0
vn 0 1 0
vn 0 1 0
vn 0 1 0
vn 0 1 0
vn 0 1 0
vn 0 1 0
vn 0 1 0
vn 0 1 0
vn 0 1 0
vn 0 1 0
vn 0 1 0
vn 0 1 0
vn 0 1 0
vn 0 1 0
vn 0 1 0
vn 0 1 0
vn 0 1 0
vn 0 1 0
vn 0 1 0
vn 0 1 0
vn 0 1 0
vn 0 1 0
vn 0 1 0
vn 0 1 0
vn 0 1 0
vn 0 1 0
vn 0 1 0
vn 0 1 0
vn 0 1 0
vn 0 1 0
vn 0 1 0
vn 0 1 0
vn 0 1 0
vn 0 1 0
vn 0 1 0
vn 0 1 0
g S2Table03_02_0
f 3/3/3 2/2/2 1/1/1
f 4/4/4 3/3/3 1/1/1
f 4/4/4 1/1/1 5/5/5
f 6/6/6 4/4/4 5/5/5
f 9/9/9 8/8/8 7/7/7
f 7/7/7 10/10/10 9/9/9
f 11/11/11 9/9/9 10/10/10
f 7/7/7 12/12/12 10/10/10
f 10/10/10 13/13/13 11/11/11
f 12/12/12 14/14/14 10/10/10
f 14/14/14 15/15/15 10/10/10
f 10/10/10 16/16/16 13/13/13
f 10/10/10 17/17/17 16/16/16
f 10/10/10 18/18/18 17/17/17
f 21/21/21 20/20/20 19/19/19
f 22/22/22 21/21/21 19/19/19
f 22/22/22 19/19/19 23/23/23
f 24/24/24 22/22/22 23/23/23
f 27/27/27 26/26/26 25/25/25
f 28/28/28 27/27/27 25/25/25
f 28/28/28 25/25/25 29/29/29
f 30/30/30 28/28/28 29/29/29
f 33/33/33 32/32/32 31/31/31
f 34/34/34 33/33/33 31/31/31
f 34/34/34 31/31/31 35/35/35
f 36/36/36 34/34/34 35/35/35
f 39/39/39 38/38/38 37/37/37
f 40/40/40 39/39/39 37/37/37
f 43/43/43 42/42/42 41/41/41
f 44/44/44 43/43/43 41/41/41
f 47/47/47 46/46/46 45/45/45
f 48/48/48 47/47/47 45/45/45
f 51/51/51 50/50/50 49/49/49
f 52/52/52 51/51/51 49/49/49
f 55/55/55 54/54/54 53/53/53
f 56/56/56 55/55/55 53/53/53
f 59/59/59 58/58/58 57/57/57
f 60/60/60 59/59/59 57/57/57
f 63/63/63 62/62/62 61/61/61
f 64/64/64 63/63/63 61/61/61
f 67/67/67 66/66/66 65/65/65
f 68/68/68 67/67/67 65/65/65
f 71/71/71 70/70/70 69/69/69
f 72/72/72 71/71/71 69/69/69
f 75/75/75 74/74/74 73/73/73
f 76/76/76 75/75/75 73/73/73
f 79/79/79 78/78/78 77/77/77
f 80/80/80 79/79/79 77/77/77
f 83/83/83 82/82/82 81/81/81
f 84/84/84 83/83/83 81/81/81
f 87/87/87 86/86/86 85/85/85
f 88/88/88 87/87/87 85/85/85
f 91/91/91 90/90/90 89/89/89
f 92/92/92 91/91/91 89/89/89
f 95/95/95 94/94/94 93/93/93
f 96/96/96 95/95/95 93/93/93
f 99/99/99 98/98/98 97/97/97
f 100/100/100 99/99/99 97/97/97
f 103/103/103 102/102/102 101/101/101
f 104/104/104 103/103/103 101/101/101
f 107/107/107 106/106/106 105/105/105
f 108/108/108 107/107/107 105/105/105
f 111/111/111 110/110/110 109/109/109
f 112/112/112 111/111/111 109/109/109
f 115/115/115 114/114/114 113/113/113
f 116/116/116 115/115/115 113/113/113
f 119/119/119 118/118/118 117/117/117
f 120/120/120 119/119/119 117/117/117
f 123/123/123 122/122/122 121/121/121
f 124/124/124 123/123/123 121/121/121
f 127/127/127 126/126/126 125/125/125
f 128/128/128 127/127/127 125/125/125
f 131/131/131 130/130/130 129/129/129
f 132/132/132 131/131/131 129/129/129
f 135/135/135 134/134/134 133/133/133
f 133/133/133 136/136/136 135/135/135
f 137/137/137 135/135/135 136/136/136
f 136/136/136 138/138/138 137/137/137
f 133/133/133 139/139/139 136/136/136
f 136/136/136 140/140/140 138/138/138
f 136/136/136 141/141/141 140/140/140
f 141/141/141 142/142/142 140/140/140
f 139/139/139 143/143/143 136/136/136
f 139/139/139 144/144/144 143/143/143
f 145/145/145 144/144/144 139/139/139
f 146/146/146 140/140/140 142/142/142
f 139/139/139 147/147/147 145/145/145
f 142/142/142 148/148/148 146/146/146
f 147/147/147 149/149/149 145/145/145
f 148/148/148 149/149/149 146/146/146
f 147/147/147 150/150/150 149/149/149
f 149/149/149 150/150/150 146/146/146
f 147/147/147 151/151/151 150/150/150
f 150/150/150 152/152/152 146/146/146
f 155/155/155 154/154/154 153/153/153
f 154/154/154 156/156/156 153/153/153
f 153/153/153 156/156/156 157/157/157
f 154/154/154 158/158/158 156/156/156
f 156/156/156 159/159/159 157/157/157
f 158/158/158 160/160/160 156/156/156
f 156/156/156 160/160/160 159/159/159
f 160/160/160 161/161/161 159/159/159
f 164/164/164 163/163/163 162/162/162
f 164/164/164 162/162/162 165/165/165
f 163/163/163 166/166/166 162/162/162
f 162/162/162 167/167/167 165/165/165
f 168/168/168 166/166/166 163/163/163
f 169/169/169 168/168/168 163/163/163
f 165/165/165 167/167/167 170/170/170
f 167/167/167 171/171/171 170/170/170
f 172/172/172 168/168/168 169/169/169
f 173/173/173 172/172/172 169/169/169
f 170/170/170 171/171/171 174/174/174
f 175/175/175 170/170/170 174/174/174
f 175/175/175 174/174/174 176/176/176
f 174/174/174 177/177/177 176/176/176
f 172/172/172 173/173/173 178/178/178
f 179/179/179 172/172/172 178/178/178
f 180/180/180 179/179/179 178/178/178
f 181/181/181 180/180/180 178/178/178
f 176/176/176 177/177/177 182/182/182
f 177/177/177 183/183/183 182/182/182
f 184/184/184 180/180/180 181/181/181
f 182/182/182 183/183/183 184/184/184
f 185/185/185 184/184/184 181/181/181
f 185/185/185 182/182/182 184/184/184
