g S3_Table0302
v 0.472752 0.85 -0.472752
v 0.3466142 0.8800001 -0.525
v 0.3466142 0.85 -0.525
v 0.3466142 0.8499999 0.5250001
v 0.3466142 0.8799999 0.5250001
v 0.472752 0.8499999 0.4727521
v 1.862643E-10 0.8800001 -0.525
v -0.021 0.9 -0.525
v -0.3256142 0.9 -0.525
v -0.3466142 0.8800001 -0.525
v -0.35 0.7749999 0.6000001
v -0.5267767 0.7749999 0.5267768
v -0.5267767 0.8499999 0.5267768
v -0.35 0.8499999 0.6000001
v 0 0.7749999 0.6000001
v 0 0.8499999 0.6000001
v 0.35 0.7749999 0.6000001
v 0.35 0.8499999 0.6000001
v 0.5267767 0.7749999 0.5267768
v 0.5267767 0.8499999 0.5267768
v -0.5267767 0.7749999 0.5267768
v -0.6 0.85 0.3500001
v -0.5267767 0.8499999 0.5267768
v -0.6 0.775 0.3500001
v -0.6 0.85 -0.35
v -0.6 0.775 -0.35
v -0.5267767 0.85 -0.5267767
v -0.5267767 0.775 -0.5267767
v -0.35 0.85 -0.6
v -0.5267767 0.85 -0.5267767
v -0.5267767 0.775 -0.5267767
v -0.35 0.775 -0.6
v 0 0.85 -0.6
v 0 0.775 -0.6
v 0.35 0.85 -0.6
v 0.35 0.775 -0.6
v 0.5267767 0.85 -0.5267767
v 0.5267767 0.775 -0.5267767
v 0.6 0.85 -0.35
v 0.5267767 0.85 -0.5267767
v 0.5267767 0.775 -0.5267767
v 0.6 0.775 -0.35
v 0.6 0.85 0.3500001
v 0.6 0.775 0.3500001
v 0.5267767 0.8499999 0.5267768
v 0.5267767 0.7749999 0.5267768
v 0.5267767 0.775 -0.5267767
v 0.35 0.775 -0.6
v 0 0.775 -0.6
v -0.35 0.775 -0.6
v -0.5267767 0.775 -0.5267767
v 0.6 0.775 -0.35
v -0.6 0.775 -0.35
v 0.6 0.775 0.3500001
v -0.6 0.775 0.3500001
v 0.5267767 0.7749999 0.5267768
v -0.5267767 0.7749999 0.5267768
v 0.35 0.7749999 0.6000001
v -0.35 0.7749999 0.6000001
v 0 0.7749999 0.6000001
v -0.472752 0.85 -0.472752
v -0.3676142 0.9 -0.5163015
v -0.472752 0.9 -0.472752
v -0.3466142 0.8800001 -0.525
v -0.3466142 0.85 -0.525
v 1.862643E-10 0.8799999 0.5250001
v 0.021 0.8999999 0.5250001
v 0.3256142 0.8999999 0.5250001
v 0.3466142 0.8799999 0.5250001
v 1.862643E-10 0.8499999 0.5250001
v 0.3466142 0.8499999 0.5250001
v -0.472752 0.85 -0.472752
v -0.472752 0.9 -0.472752
v -0.525 0.9 -0.3466142
v -0.525 0.85 -0.3466142
v -0.525 0.9 0.3466143
v -0.525 0.85 0.3466143
v -0.472752 0.8999999 0.4727521
v -0.472752 0.8499999 0.4727521
v -0.021 0.8999999 0.5250001
v -0.3256142 0.8999999 0.5250001
v -0.3256142 0.9 -0.525
v -0.021 0.9 -0.525
v 0.472752 0.8499999 0.4727521
v 0.472752 0.8999999 0.4727521
v 0.525 0.9 0.3466143
v 0.525 0.85 0.3466143
v 0.525 0.9 -0.3466142
v 0.525 0.85 -0.3466142
v 0.472752 0.9 -0.472752
v 0.472752 0.85 -0.472752
v 0.3676142 0.8999999 0.5163016
v 0.3676142 0.9 -0.5163015
v 0.472752 0.9 -0.472752
v 0.525 0.9 -0.3466142
v 0.525 0.9 0.3466143
v 0.472752 0.8999999 0.4727521
v 0.3466142 0.8800001 -0.525
v 0.3256142 0.9 -0.525
v 0.021 0.9 -0.525
v 1.862643E-10 0.8800001 -0.525
v 0.3466142 0.85 -0.525
v 1.862643E-10 0.85 -0.525
v -0.472752 0.9 -0.472752
v -0.3676142 0.9 -0.5163015
v -0.3676142 0.8999999 0.5163016
v -0.525 0.9 -0.3466142
v -0.525 0.9 0.3466143
v -0.472752 0.8999999 0.4727521
v 0.3256142 0.8999999 0.5250001
v 0.021 0.8999999 0.5250001
v 0.021 0.9 -0.525
v 0.3256142 0.9 -0.525
v 0.472752 0.8499999 0.4727521
v 0.3466142 0.8799999 0.5250001
v 0.3676142 0.8999999 0.5163016
v 0.472752 0.8999999 0.4727521
v -0.3466142 0.8799999 0.5250001
v -0.3256142 0.8999999 0.5250001
v -0.021 0.8999999 0.5250001
v 1.862643E-10 0.8799999 0.5250001
v -0.021 0.9 -0.525
v 1.862643E-10 0.8800001 -0.525
v 1.862643E-10 0.8799999 0.5250001
v -0.021 0.8999999 0.5250001
v 1.862643E-10 0.8800001 -0.525
v 0.021 0.9 -0.525
v 0.021 0.8999999 0.5250001
v 1.862643E-10 0.8799999 0.5250001
v 0.3256142 0.9 -0.525
v 0.3466142 0.8800001 -0.525
v 0.3466142 0.8799999 0.5250001
v 0.3256142 0.8999999 0.5250001
v 0.3466142 0.8800001 -0.525
v 0.3676142 0.9 -0.5163015
v 0.3676142 0.8999999 0.5163016
v 0.3466142 0.8799999 0.5250001
v -0.3676142 0.9 -0.5163015
v -0.3466142 0.8800001 -0.525
v -0.3466142 0.8799999 0.5250001
v -0.3676142 0.8999999 0.5163016
v -0.3466142 0.8800001 -0.525
v -0.3256142 0.9 -0.525
v -0.3256142 0.8999999 0.5250001
v -0.3466142 0.8799999 0.5250001
v -0.472752 0.8499999 0.4727521
v -0.3466142 0.8799999 0.5250001
v -0.3466142 0.8499999 0.5250001
v -0.472752 0.8999999 0.4727521
v -0.3676142 0.8999999 0.5163016
v -0.3466142 0.8499999 0.5250001
v -0.3466142 0.8799999 0.5250001
v 1.862643E-10 0.8799999 0.5250001
v 1.862643E-10 0.8499999 0.5250001
v 1.862643E-10 0.85 -0.525
v 1.862643E-10 0.8800001 -0.525
v -0.3466142 0.8800001 -0.525
v -0.3466142 0.85 -0.525
v 0.472752 0.9 -0.472752
v 0.3676142 0.9 -0.5163015
v 0.3466142 0.8800001 -0.525
v 0.472752 0.85 -0.472752
v -0.3268114 0.08000004 -0.3268114
v -0.2466871 0.08000004 -0.36
v 0.2466871 0.08000004 -0.36
v 0.3268114 0.08000004 -0.3268114
v -0.36 0.08000003 -0.2466871
v 0.36 0.08000003 -0.2466871
v -0.36 0.08 0.2466871
v 0.36 0.08 0.2466871
v -0.3268114 0.07999999 0.3268114
v 0.3268114 0.07999999 0.3268114
v -0.2466871 0.07999998 0.36
v 0.2466871 0.07999998 0.36
v 0.03999999 0.08179263 0.04
v 0.03999999 0.8 0.04000005
v 0.03999999 0.8 -0.03999993
v 0.03999999 0.08179263 -0.03999998
v -0.03999999 0.08179263 -0.03999998
v -0.03999999 0.8 -0.03999993
v -0.03999999 0.8 0.04000005
v -0.03999999 0.08179263 0.04
v -0.03999999 0.08179263 0.04
v -0.03999999 0.8 0.04000005
v 0.03999999 0.8 0.04000005
v 0.03999999 0.08179263 0.04
v 0.03999999 0.08179263 -0.03999998
v 0.03999999 0.8 -0.03999993
v -0.03999999 0.8 -0.03999993
v -0.03999999 0.08179263 -0.03999998
v -0.2466871 -3.090453E-08 0.36
v -0.3268114 -2.839887E-08 0.3268114
v -0.3268114 0.07999999 0.3268114
v -0.2466871 0.07999998 0.36
v 0.2466871 -3.090453E-08 0.36
v 0.2466871 0.07999998 0.36
v 0.3268114 -2.839887E-08 0.3268114
v 0.3268114 0.07999999 0.3268114
v -0.3268114 -2.839887E-08 0.3268114
v -0.36 0.08 0.2466871
v -0.3268114 0.07999999 0.3268114
v -0.36 -2.234965E-08 0.2466871
v -0.36 0.08000003 -0.2466871
v -0.36 1.489907E-08 -0.2466871
v -0.3268114 0.08000004 -0.3268114
v -0.3268114 2.094828E-08 -0.3268114
v -0.2466871 0.08000004 -0.36
v -0.3268114 0.08000004 -0.3268114
v -0.3268114 2.094828E-08 -0.3268114
v -0.2466871 2.345395E-08 -0.36
v 0.2466871 0.08000004 -0.36
v 0.2466871 2.345395E-08 -0.36
v 0.3268114 0.08000004 -0.3268114
v 0.3268114 2.094828E-08 -0.3268114
v 0.36 0.08000003 -0.2466871
v 0.3268114 0.08000004 -0.3268114
v 0.3268114 2.094828E-08 -0.3268114
v 0.36 1.489907E-08 -0.2466871
v 0.36 0.08 0.2466871
v 0.36 -2.234965E-08 0.2466871
v 0.3268114 0.07999999 0.3268114
v 0.3268114 -2.839887E-08 0.3268114
v 0.3268114 2.094828E-08 -0.3268114
v 0.2466871 2.345395E-08 -0.36
v -0.2466871 2.345395E-08 -0.36
v -0.3268114 2.094828E-08 -0.3268114
v 0.36 1.489907E-08 -0.2466871
v -0.36 1.489907E-08 -0.2466871
v 0.36 -2.234965E-08 0.2466871
v -0.36 -2.234965E-08 0.2466871
v 0.3268114 -2.839887E-08 0.3268114
v -0.3268114 -2.839887E-08 0.3268114
v 0.2466871 -3.090453E-08 0.36
v -0.2466871 -3.090453E-08 0.36
v -0.472752 0.8499999 0.4727521
v -0.6 0.85 0.3500001
v -0.525 0.85 0.3466143
v -0.5267767 0.8499999 0.5267768
v -0.6 0.85 -0.35
v -0.3466142 0.8499999 0.5250001
v -0.525 0.85 -0.3466142
v -0.35 0.8499999 0.6000001
v -0.5267767 0.85 -0.5267767
v 1.862643E-10 0.8499999 0.5250001
v -0.472752 0.85 -0.472752
v 0 0.8499999 0.6000001
v -0.35 0.85 -0.6
v 0.3466142 0.8499999 0.5250001
v -0.3466142 0.85 -0.525
v 0.35 0.8499999 0.6000001
v 0 0.85 -0.6
v 0.472752 0.8499999 0.4727521
v 1.862643E-10 0.85 -0.525
v 0.5267767 0.8499999 0.5267768
v 0.35 0.85 -0.6
v 0.525 0.85 0.3466143
v 0.3466142 0.85 -0.525
v 0.6 0.85 0.3500001
v 0.5267767 0.85 -0.5267767
v 0.525 0.85 -0.3466142
v 0.472752 0.85 -0.472752
v 0.6 0.85 -0.35
vt 0.8290281 0.2835659
vt 0.8290281 0.2835659
vt 0.8290281 0.2835659
vt 0.8290281 0.2835659
vt 0.8290281 0.2835659
vt 0.8290281 0.2835659
vt 0.8290281 0.2822539
vt 0.8290281 0.2822539
vt 0.8290281 0.2822539
vt 0.8290281 0.2822539
vt 0.4745425 0.9070963
vt 0.4745425 0.9070963
vt 0.4745425 0.9070963
vt 0.4745425 0.9070963
vt 0.4745425 0.9070963
vt 0.4745425 0.9070963
vt 0.4745425 0.9070963
vt 0.4745425 0.9070963
vt 0.4745425 0.9070963
vt 0.4745425 0.9070963
vt 0.4745425 0.9070963
vt 0.4745425 0.9070963
vt 0.4745425 0.9070963
vt 0.4745425 0.9070963
vt 0.4745425 0.9070963
vt 0.4745425 0.9070963
vt 0.4745425 0.9070963
vt 0.4745425 0.9070963
vt 0.4745425 0.9070963
vt 0.4745425 0.9070963
vt 0.4745425 0.9070963
vt 0.4745425 0.9070963
vt 0.4745425 0.9070963
vt 0.4745425 0.9070963
vt 0.4745425 0.9070963
vt 0.4745425 0.9070963
vt 0.4745425 0.9070963
vt 0.4745425 0.9070963
vt 0.4745425 0.9070963
vt 0.4745425 0.9070963
vt 0.4745425 0.9070963
vt 0.4745425 0.9070963
vt 0.4745425 0.9070963
vt 0.4745425 0.9070963
vt 0.4745425 0.9070963
vt 0.4745425 0.9070963
vt 0.4745425 0.9070963
vt 0.4745425 0.9070963
vt 0.4745425 0.9070963
vt 0.4745425 0.9070963
vt 0.4745425 0.9070963
vt 0.4745425 0.9070963
vt 0.4745425 0.9070963
vt 0.4745425 0.9070963
vt 0.4745425 0.9070963
vt 0.4745425 0.9070963
vt 0.4745425 0.9070963
vt 0.4745425 0.9070963
vt 0.4745425 0.9070963
vt 0.4745425 0.9070963
vt 0.09269595 0.9017346
vt 0.09269595 0.9017346
vt 0.09269595 0.9017346
vt 0.09269595 0.9017346
vt 0.09269595 0.9017346
vt 0.09269595 0.9017346
vt 0.09269595 0.9017346
vt 0.09269595 0.9017346
vt 0.09269595 0.9017346
vt 0.09269595 0.9017346
vt 0.09269595 0.9017346
vt 0.09269595 0.9017346
vt 0.09269595 0.9017346
vt 0.09269595 0.9017346
vt 0.09269595 0.9017346
vt 0.09269595 0.9017346
vt 0.09269595 0.9017346
vt 0.09269595 0.9017346
vt 0.09269595 0.9017346
vt 0.7794029 0.2821222
vt 0.7794029 0.2821222
vt 0.7794029 0.2821222
vt 0.7794029 0.2821222
vt 0.8290281 0.2822539
vt 0.8290281 0.2822539
vt 0.8290281 0.2822539
vt 0.8290281 0.2822539
vt 0.8290281 0.2822539
vt 0.8290281 0.2822539
vt 0.8290281 0.2822539
vt 0.8290281 0.2822539
vt 0.7794029 0.2821222
vt 0.7794029 0.2821222
vt 0.7794029 0.2821222
vt 0.7794029 0.2821222
vt 0.7794029 0.2821222
vt 0.7794029 0.2821222
vt 0.09269595 0.9017346
vt 0.09269595 0.9017346
vt 0.09269595 0.9017346
vt 0.09269595 0.9017346
vt 0.09269595 0.9017346
vt 0.09269595 0.9017346
vt 0.09330769 0.9688433
vt 0.09330769 0.9688433
vt 0.09330769 0.9688433
vt 0.09330769 0.9688433
vt 0.09330769 0.9688433
vt 0.09330769 0.9688433
vt 0.09330769 0.9688433
vt 0.09330769 0.9688433
vt 0.09330769 0.9688433
vt 0.09330769 0.9688433
vt 0.8290281 0.2822539
vt 0.8290281 0.2822539
vt 0.8290281 0.2822539
vt 0.8290281 0.2822539
vt 0.8290281 0.2822539
vt 0.8290281 0.2822539
vt 0.8290281 0.2822539
vt 0.8290281 0.2822539
vt 0.8290281 0.2822539
vt 0.8290281 0.2822539
vt 0.8290281 0.2822539
vt 0.8290281 0.2822539
vt 0.09269595 0.9017346
vt 0.09269595 0.9017346
vt 0.09269595 0.9017346
vt 0.09269595 0.9017346
vt 0.09269595 0.9017346
vt 0.09269595 0.9017346
vt 0.09269595 0.9017346
vt 0.09269595 0.9017346
vt 0.8290281 0.2822539
vt 0.8290281 0.2822539
vt 0.8290281 0.2822539
vt 0.8290281 0.2822539
vt 0.09269595 0.9017346
vt 0.09269595 0.9017346
vt 0.09269595 0.9017346
vt 0.09269595 0.9017346
vt 0.8290281 0.2822539
vt 0.8290281 0.2822539
vt 0.8290281 0.2822539
vt 0.8290281 0.2822539
vt 0.09269595 0.9017346
vt 0.09269595 0.9017346
vt 0.09269595 0.9017346
vt 0.09269595 0.9017346
vt 0.09269595 0.9017346
vt 0.8290281 0.2835659
vt 0.8290281 0.2835659
vt 0.8290281 0.2835659
vt 0.8290281 0.2835659
vt 0.8290281 0.2835659
vt 0.8290281 0.2835659
vt 0.8290281 0.2835659
vt 0.8290281 0.2835659
vt 0.8290281 0.2822539
vt 0.8290281 0.2822539
vt 0.8290281 0.2822539
vt 0.8290281 0.2822539
vt 0.4761956 0.9070963
vt 0.4761956 0.9070963
vt 0.4761956 0.9070963
vt 0.4761956 0.9070963
vt 0.4761956 0.9070963
vt 0.4761956 0.9070963
vt 0.4761956 0.9070963
vt 0.4761956 0.9070963
vt 0.4761956 0.9070963
vt 0.4761956 0.9070963
vt 0.4761956 0.9070963
vt 0.4761956 0.9070963
vt 0.4761956 0.9070963
vt 0.4761956 0.9070963
vt 0.4761956 0.9070963
vt 0.4761956 0.9070963
vt 0.4761956 0.9070963
vt 0.4761956 0.9070963
vt 0.4761956 0.9070963
vt 0.4761956 0.9070963
vt 0.4761956 0.9070963
vt 0.4761956 0.9070963
vt 0.4761956 0.9070963
vt 0.4761956 0.9070963
vt 0.4761956 0.9070963
vt 0.4761956 0.9070963
vt 0.4761956 0.9070963
vt 0.4761956 0.9070963
vt 0.4761956 0.9070963
vt 0.4761956 0.9070963
vt 0.4761956 0.9070963
vt 0.4761956 0.9070963
vt 0.4761956 0.9070963
vt 0.4761956 0.9070963
vt 0.4761956 0.9070963
vt 0.4761956 0.9070963
vt 0.4761956 0.9070963
vt 0.4761956 0.9070963
vt 0.4761956 0.9070963
vt 0.4761956 0.9070963
vt 0.4761956 0.9070963
vt 0.4761956 0.9070963
vt 0.4761956 0.9070963
vt 0.4761956 0.9070963
vt 0.4761956 0.9070963
vt 0.4761956 0.9070963
vt 0.4761956 0.9070963
vt 0.4761956 0.9070963
vt 0.4761956 0.9070963
vt 0.4761956 0.9070963
vt 0.4761956 0.9070963
vt 0.4761956 0.9070963
vt 0.4761956 0.9070963
vt 0.4761956 0.9070963
vt 0.4761956 0.9070963
vt 0.4761956 0.9070963
vt 0.4761956 0.9070963
vt 0.4761956 0.9070963
vt 0.4761956 0.9070963
vt 0.4761956 0.9070963
vt 0.4761956 0.9070963
vt 0.4761956 0.9070963
vt 0.4761956 0.9070963
vt 0.4761956 0.9070963
vt 0.4761956 0.9070963
vt 0.4761956 0.9070963
vt 0.4761956 0.9070963
vt 0.4761956 0.9070963
vt 0.4761956 0.9070963
vt 0.4761956 0.9070963
vt 0.4761956 0.9070963
vt 0.4761956 0.9070963
vt 0.4745425 0.9070963
vt 0.4745425 0.9070963
vt 0.4745425 0.9070963
vt 0.4745425 0.9070963
vt 0.4745425 0.9070963
vt 0.4745425 0.9070963
vt 0.4745425 0.9070963
vt 0.4745425 0.9070963
vt 0.4745425 0.9070963
vt 0.4745425 0.9070963
vt 0.4745425 0.9070963
vt 0.4745425 0.9070963
vt 0.4745425 0.9070963
vt 0.4745425 0.9070963
vt 0.4745425 0.9070963
vt 0.4745425 0.9070963
vt 0.4745425 0.9070963
vt 0.4745425 0.9070963
vt 0.4745425 0.9070963
vt 0.4745425 0.9070963
vt 0.4745425 0.9070963
vt 0.4745425 0.9070963
vt 0.4745425 0.9070963
vt 0.4745425 0.9070963
vt 0.4745425 0.9070963
vt 0.4745425 0.9070963
vt 0.4745425 0.9070963
vt 0.4745425 0.9070963
vn 0.3826833 0 -0.9238795
vn 0.1934272 0 -0.9811147
vn 0.195091 0 -0.9807851
vn 0.1950912 0 0.9807851
vn 0.1934273 0 0.9811147
vn 0.3826833 0 0.9238795
vn 0 0 -1
vn 0 0 -1
vn 0 0 -1
vn -0.1934272 0 -0.9811147
vn -0.1950903 0 0.9807854
vn -0.3826833 0 0.9238795
vn -0.3826833 0 0.9238795
vn -0.1950903 0 0.9807854
vn 0 0 1
vn 0 0 1
vn 0.1950903 0 0.9807854
vn 0.1950903 0 0.9807854
vn 0.3826833 0 0.9238795
vn 0.3826833 0 0.9238795
vn -0.9238797 0 0.3826831
vn -0.9807854 0 0.1950901
vn -0.9238797 0 0.3826831
vn -0.9807854 0 0.1950901
vn -0.9807853 0 -0.1950903
vn -0.9807853 0 -0.1950903
vn -0.9238795 0 -0.3826835
vn -0.9238795 0 -0.3826835
vn -0.1950903 0 -0.9807854
vn -0.3826833 0 -0.9238795
vn -0.3826833 0 -0.9238795
vn -0.1950903 0 -0.9807854
vn 0 0 -1
vn 0 0 -1
vn 0.1950903 0 -0.9807854
vn 0.1950903 0 -0.9807854
vn 0.3826833 0 -0.9238795
vn 0.3826833 0 -0.9238795
vn 0.9807853 0 -0.1950903
vn 0.9238795 0 -0.3826835
vn 0.9238795 0 -0.3826835
vn 0.9807853 0 -0.1950903
vn 0.9807854 0 0.1950901
vn 0.9807854 0 0.1950901
vn 0.9238797 0 0.3826831
vn 0.9238797 0 0.3826831
vn 0 -1 0
vn 0 -1 0
vn 0 -1 0
vn 0 -1 0
vn 0 -1 0
vn 0 -1 0
vn 0 -1 0
vn 0 -1 0
vn 0 -1 0
vn 0 -1 0
vn 0 -1 0
vn 0 -1 0
vn 0 -1 0
vn 0 -1 0
vn -0.3826833 0 -0.9238795
vn -0.3826831 0 -0.9238796
vn -0.3826831 0 -0.9238796
vn -0.1934272 0 -0.9811147
vn -0.195091 0 -0.9807851
vn 0 0 1
vn 0 0 1
vn 0 0 1
vn 0.1934273 0 0.9811147
vn 0 0 1
vn 0.1950912 0 0.9807851
vn -0.9238797 0 -0.382683
vn -0.9238797 0 -0.382683
vn -0.9807854 0 -0.1950901
vn -0.9807854 0 -0.1950901
vn -0.9807853 0 0.1950906
vn -0.9807853 0 0.1950906
vn -0.9238793 0 0.382684
vn -0.9238793 0 0.382684
vn 0 1 0
vn 0 1 0
vn 0 1 0
vn 0 1 0
vn 0.9238793 0 0.382684
vn 0.9238793 0 0.382684
vn 0.9807853 0 0.1950906
vn 0.9807853 0 0.1950906
vn 0.9807854 0 -0.1950901
vn 0.9807854 0 -0.1950901
vn 0.9238797 0 -0.382683
vn 0.9238797 0 -0.382683
vn 0 1 0
vn 0 1 0
vn 0 1 0
vn 0 1 0
vn 0 1 0
vn 0 1 0
vn 0.1934272 0 -0.9811147
vn 0 0 -1
vn 0 0 -1
vn 0 0 -1
vn 0.195091 0 -0.9807851
vn 0 0 -1
vn 0 1 0
vn 0 1 0
vn 0 1 0
vn 0 1 0
vn 0 1 0
vn 0 1 0
vn 0 1 0
vn 0 1 0
vn 0 1 0
vn 0 1 0
vn 0.3826833 0 0.9238795
vn 0.1934273 0 0.9811147
vn 0.3826831 0 0.9238796
vn 0.3826831 0 0.9238796
vn -0.1934273 0 0.9811147
vn 0 0 1
vn 0 0 1
vn 0 0 1
vn 0.6896548 0.7241382 0
vn 0.6896548 0.7241382 0
vn 0.6896548 0.7241382 0
vn 0.6896548 0.7241382 0
vn -0.6896548 0.7241382 0
vn -0.6896548 0.7241382 0
vn -0.6896548 0.7241382 0
vn -0.6896548 0.7241382 0
vn 0.689655 0.7241381 0
vn 0.689655 0.7241381 0
vn 0.689655 0.7241381 0
vn 0.689655 0.7241381 0
vn -0.6896538 0.7241392 0
vn -0.6896538 0.7241392 0
vn -0.6896538 0.7241392 0
vn -0.6896538 0.7241392 0
vn 0.6896538 0.7241392 0
vn 0.6896538 0.7241392 0
vn 0.6896538 0.7241392 0
vn 0.6896538 0.7241392 0
vn -0.689655 0.7241381 0
vn -0.689655 0.7241381 0
vn -0.689655 0.7241381 0
vn -0.689655 0.7241381 0
vn -0.3826833 0 0.9238795
vn -0.1934273 0 0.9811147
vn -0.1950912 0 0.9807851
vn -0.3826831 0 0.9238796
vn -0.3826831 0 0.9238796
vn -0.1950912 0 0.9807851
vn -0.1934273 0 0.9811147
vn 0 0 1
vn 0 0 1
vn 0 0 -1
vn 0 0 -1
vn -0.1934272 0 -0.9811147
vn -0.195091 0 -0.9807851
vn 0.3826831 0 -0.9238796
vn 0.3826831 0 -0.9238796
vn 0.1934272 0 -0.9811147
vn 0.3826833 0 -0.9238795
vn 0 1 0
vn 0 1 0
vn 0 1 0
vn 0 1 0
vn 0 1 0
vn 0 1 0
vn 0 1 0
vn 0 1 0
vn 0 1 0
vn 0 1 0
vn 0 1 0
vn 0 1 0
vn 1 0 0
vn 1 0 0
vn 1 0 0
vn 1 0 0
vn -1 0 0
vn -1 0 0
vn -1 0 0
vn -1 0 0
vn 0 0 1
vn 0 0 1
vn 0 0 1
vn 0 0 1
vn 0 0 -1
vn 0 0 -1
vn 0 0 -1
vn 0 0 -1
vn -0.1950904 0 0.9807853
vn -0.3826835 0 0.9238795
vn -0.3826835 0 0.9238795
vn -0.1950904 0 0.9807853
vn 0.1950904 0 0.9807853
vn 0.1950904 0 0.9807853
vn 0.3826835 0 0.9238795
vn 0.3826835 0 0.9238795
vn -0.9238794 0 0.3826836
vn -0.9807853 0 0.1950904
vn -0.9238794 0 0.3826836
vn -0.9807853 0 0.1950904
vn -0.9807853 0 -0.1950904
vn -0.9807853 0 -0.1950904
vn -0.9238795 0 -0.3826835
vn -0.9238795 0 -0.3826835
vn -0.1950905 0 -0.9807853
vn -0.3826837 0 -0.9238794
vn -0.3826837 0 -0.9238794
vn -0.1950905 0 -0.9807853
vn 0.1950905 0 -0.9807853
vn 0.1950905 0 -0.9807853
vn 0.3826837 0 -0.9238794
vn 0.3826837 0 -0.9238794
vn 0.9807853 0 -0.1950904
vn 0.9238795 0 -0.3826835
vn 0.9238795 0 -0.3826835
vn 0.9807853 0 -0.1950904
vn 0.9807853 0 0.1950904
vn 0.9807853 0 0.1950904
vn 0.9238794 0 0.3826836
vn 0.9238794 0 0.3826836
vn 0 -1 0
vn 0 -1 0
vn 0 -1 0
vn 0 -1 0
vn 0 -1 0
vn 0 -1 0
vn 0 -1 0
vn 0 -1 0
vn 0 -1 0
vn 0 -1 0
vn 0 -1 0
vn 0 -1 0
vn 0 1 0
vn 0 1 0
vn 0 1 0
vn 0 1 0
vn 0 1 0
vn 0 1 0
vn 0 1 0
vn 0 1 0
vn 0 1 0
vn 0 1 0
vn 0 1 0
vn 0 1 0
vn 0 1 0
vn 0 1 0
vn 0 1 0
vn 0 1 0
vn 0 1 0
vn 0 1 0
vn 0 1 0
vn 0 1 0
vn 0 1 0
vn 0 1 0
vn 0 1 0
vn 0 1 0
vn 0 1 0
vn 0 1 0
vn 0 1 0
vn 0 1 0
g S3_Table0302_0
f 3/3/3 2/2/2 1/1/1
f 6/6/6 5/5/5 4/4/4
f 9/9/9 8/8/8 7/7/7
f 10/10/10 9/9/9 7/7/7
f 13/13/13 12/12/12 11/11/11
f 14/14/14 13/13/13 11/11/11
f 14/14/14 11/11/11 15/15/15
f 16/16/16 14/14/14 15/15/15
f 16/16/16 15/15/15 17/17/17
f 18/18/18 16/16/16 17/17/17
f 17/17/17 19/19/19 18/18/18
f 19/19/19 20/20/20 18/18/18
f 23/23/23 22/22/22 21/21/21
f 22/22/22 24/24/24 21/21/21
f 22/22/22 25/25/25 24/24/24
f 25/25/25 26/26/26 24/24/24
f 26/26/26 25/25/25 27/27/27
f 28/28/28 26/26/26 27/27/27
f 31/31/31 30/30/30 29/29/29
f 32/32/32 31/31/31 29/29/29
f 29/29/29 33/33/33 32/32/32
f 33/33/33 34/34/34 32/32/32
f 33/33/33 35/35/35 34/34/34
f 35/35/35 36/36/36 34/34/34
f 36/36/36 35/35/35 37/37/37
f 38/38/38 36/36/36 37/37/37
f 41/41/41 40/40/40 39/39/39
f 42/42/42 41/41/41 39/39/39
f 39/39/39 43/43/43 42/42/42
f 43/43/43 44/44/44 42/42/42
f 44/44/44 43/43/43 45/45/45
f 46/46/46 44/44/44 45/45/45
f 49/49/49 48/48/48 47/47/47
f 47/47/47 50/50/50 49/49/49
f 47/47/47 51/51/51 50/50/50
f 47/47/47 52/52/52 51/51/51
f 52/52/52 53/53/53 51/51/51
f 52/52/52 54/54/54 53/53/53
f 54/54/54 55/55/55 53/53/53
f 54/54/54 56/56/56 55/55/55
f 56/56/56 57/57/57 55/55/55
f 56/56/56 58/58/58 57/57/57
f 58/58/58 59/59/59 57/57/57
f 58/58/58 60/60/60 59/59/59
f 63/63/63 62/62/62 61/61/61
f 62/62/62 64/64/64 61/61/61
f 61/61/61 64/64/64 65/65/65
f 68/68/68 67/67/67 66/66/66
f 69/69/69 68/68/68 66/66/66
f 69/69/69 66/66/66 70/70/70
f 71/71/71 69/69/69 70/70/70
f 74/74/74 73/73/73 72/72/72
f 75/75/75 74/74/74 72/72/72
f 76/76/76 74/74/74 75/75/75
f 77/77/77 76/76/76 75/75/75
f 78/78/78 76/76/76 77/77/77
f 79/79/79 78/78/78 77/77/77
f 82/82/82 81/81/81 80/80/80
f 83/83/83 82/82/82 80/80/80
f 86/86/86 85/85/85 84/84/84
f 87/87/87 86/86/86 84/84/84
f 88/88/88 86/86/86 87/87/87
f 89/89/89 88/88/88 87/87/87
f 90/90/90 88/88/88 89/89/89
f 91/91/91 90/90/90 89/89/89
f 94/94/94 93/93/93 92/92/92
f 92/92/92 95/95/95 94/94/94
f 92/92/92 96/96/96 95/95/95
f 92/92/92 97/97/97 96/96/96
f 100/100/100 99/99/99 98/98/98
f 101/101/101 100/100/100 98/98/98
f 101/101/101 98/98/98 102/102/102
f 103/103/103 101/101/101 102/102/102
f 106/106/106 105/105/105 104/104/104
f 104/104/104 107/107/107 106/106/106
f 107/107/107 108/108/108 106/106/106
f 108/108/108 109/109/109 106/106/106
f 112/112/112 111/111/111 110/110/110
f 113/113/113 112/112/112 110/110/110
f 116/116/116 115/115/115 114/114/114
f 117/117/117 116/116/116 114/114/114
f 120/120/120 119/119/119 118/118/118
f 121/121/121 120/120/120 118/118/118
f 124/124/124 123/123/123 122/122/122
f 125/125/125 124/124/124 122/122/122
f 128/128/128 127/127/127 126/126/126
f 129/129/129 128/128/128 126/126/126
f 132/132/132 131/131/131 130/130/130
f 133/133/133 132/132/132 130/130/130
f 136/136/136 135/135/135 134/134/134
f 137/137/137 136/136/136 134/134/134
f 140/140/140 139/139/139 138/138/138
f 141/141/141 140/140/140 138/138/138
f 144/144/144 143/143/143 142/142/142
f 145/145/145 144/144/144 142/142/142
f 148/148/148 147/147/147 146/146/146
f 146/146/146 147/147/147 149/149/149
f 147/147/147 150/150/150 149/149/149
f 153/153/153 152/152/152 151/151/151
f 154/154/154 153/153/153 151/151/151
f 157/157/157 156/156/156 155/155/155
f 158/158/158 157/157/157 155/155/155
f 161/161/161 160/160/160 159/159/159
f 162/162/162 161/161/161 159/159/159
f 165/165/165 164/164/164 163/163/163
f 163/163/163 166/166/166 165/165/165
f 163/163/163 167/167/167 166/166/166
f 167/167/167 168/168/168 166/166/166
f 167/167/167 169/169/169 168/168/168
f 169/169/169 170/170/170 168/168/168
f 169/169/169 171/171/171 170/170/170
f 171/171/171 172/172/172 170/170/170
f 171/171/171 173/173/173 172/172/172
f 173/173/173 174/174/174 172/172/172
f 177/177/177 176/176/176 175/175/175
f 178/178/178 177/177/177 175/175/175
f 181/181/181 180/180/180 179/179/179
f 182/182/182 181/181/181 179/179/179
f 185/185/185 184/184/184 183/183/183
f 186/186/186 185/185/185 183/183/183
f 189/189/189 188/188/188 187/187/187
f 190/190/190 189/189/189 187/187/187
f 193/193/193 192/192/192 191/191/191
f 194/194/194 193/193/193 191/191/191
f 194/194/194 191/191/191 195/195/195
f 196/196/196 194/194/194 195/195/195
f 195/195/195 197/197/197 196/196/196
f 197/197/197 198/198/198 196/196/196
f 201/201/201 200/200/200 199/199/199
f 200/200/200 202/202/202 199/199/199
f 200/200/200 203/203/203 202/202/202
f 203/203/203 204/204/204 202/202/202
f 204/204/204 203/203/203 205/205/205
f 206/206/206 204/204/204 205/205/205
f 209/209/209 208/208/208 207/207/207
f 210/210/210 209/209/209 207/207/207
f 207/207/207 211/211/211 210/210/210
f 211/211/211 212/212/212 210/210/210
f 212/212/212 211/211/211 213/213/213
f 214/214/214 212/212/212 213/213/213
f 217/217/217 216/216/216 215/215/215
f 218/218/218 217/217/217 215/215/215
f 215/215/215 219/219/219 218/218/218
f 219/219/219 220/220/220 218/218/218
f 220/220/220 219/219/219 221/221/221
f 222/222/222 220/220/220 221/221/221
f 225/225/225 224/224/224 223/223/223
f 223/223/223 226/226/226 225/225/225
f 223/223/223 227/227/227 226/226/226
f 227/227/227 228/228/228 226/226/226
f 227/227/227 229/229/229 228/228/228
f 229/229/229 230/230/230 228/228/228
f 229/229/229 231/231/231 230/230/230
f 231/231/231 232/232/232 230/230/230
f 231/231/231 233/233/233 232/232/232
f 233/233/233 234/234/234 232/232/232
f 237/237/237 236/236/236 235/235/235
f 236/236/236 238/238/238 235/235/235
f 239/239/239 236/236/236 237/237/237
f 235/235/235 238/238/238 240/240/240
f 241/241/241 239/239/239 237/237/237
f 238/238/238 242/242/242 240/240/240
f 243/243/243 239/239/239 241/241/241
f 240/240/240 242/242/242 244/244/244
f 245/245/245 243/243/243 241/241/241
f 242/242/242 246/246/246 244/244/244
f 247/247/247 243/243/243 245/245/245
f 244/244/244 246/246/246 248/248/248
f 249/249/249 247/247/247 245/245/245
f 246/246/246 250/250/250 248/248/248
f 251/251/251 247/247/247 249/249/249
f 248/248/248 250/250/250 252/252/252
f 253/253/253 251/251/251 249/249/249
f 250/250/250 254/254/254 252/252/252
f 255/255/255 251/251/251 253/253/253
f 252/252/252 254/254/254 256/256/256
f 257/257/257 255/255/255 253/253/253
f 254/254/254 258/258/258 256/256/256
f 259/259/259 255/255/255 257/257/257
f 256/256/256 258/258/258 260/260/260
f 261/261/261 259/259/259 257/257/257
f 258/258/258 262/262/262 260/260/260
f 262/262/262 259/259/259 261/261/261
f 260/260/260 262/262/262 261/261/261
