g Tray
v 0.3532688 0.02739082 -0.3157121
v 0.3181375 0.02739082 -0.3227001
v -0.3181375 0.02739082 -0.3227001
v -0.3532688 0.02739082 -0.3157121
v -0.3830517 0.02739082 -0.2958118
v 0.3830517 0.02739082 -0.2958118
v -0.402952 0.02739082 -0.2660289
v 0.402952 0.02739082 -0.2660289
v 0.40994 0.02739081 -0.2308976
v -0.40994 0.02739081 -0.2308976
v 0.40994 0.02739078 0.2308976
v -0.40994 0.02739078 0.2308977
v 0.402952 0.02739077 0.2660289
v -0.402952 0.02739077 0.2660289
v 0.3830517 0.02739077 0.2958118
v -0.3830517 0.02739077 0.2958118
v 0.3532688 0.02739077 0.3157121
v -0.3532688 0.02739077 0.3157121
v -0.3181375 0.02739077 0.3227002
v 0.3181375 0.02739077 0.3227002
v -0.3176421 0.06888746 -0.2838729
v -0.2860537 0.06888746 -0.2901563
v 0.2860537 0.06888746 -0.2901563
v 0.3176421 0.06888746 -0.2838729
v -0.3444214 0.06888746 -0.2659796
v 0.3444214 0.06888746 -0.2659796
v 0.3623148 0.06888746 -0.2392003
v -0.3623148 0.06888746 -0.2392003
v -0.3685981 0.06888746 -0.2076119
v 0.3685981 0.06888746 -0.2076119
v -0.3685981 0.06888743 0.2076119
v 0.3685981 0.06888743 0.2076119
v -0.3623148 0.06888743 0.2392003
v 0.3623148 0.06888743 0.2392003
v -0.3444214 0.06888742 0.2659796
v 0.3444214 0.06888742 0.2659796
v -0.3176421 0.06888742 0.283873
v 0.3176421 0.06888742 0.2838729
v 0.2860537 0.06888742 0.2901563
v -0.2860537 0.06888742 0.2901563
v 0.3181375 0.02739077 0.3227002
v -0.3181375 0.02739077 0.3227002
v -0.3343902 0.07260919 0.339186
v 0.3343902 0.07260919 0.339186
v 0.3532688 0.02739077 0.3157121
v -0.3713163 0.07260919 0.331841
v -0.3532688 0.02739077 0.3157121
v 0.3713163 0.07260919 0.3318409
v 0.3830517 0.02739077 0.2958118
v -0.4026207 0.07260919 0.310924
v -0.3830517 0.02739077 0.2958118
v 0.4026207 0.07260919 0.310924
v 0.402952 0.02739077 0.2660289
v -0.4235376 0.07260919 0.2796196
v -0.402952 0.02739077 0.2660289
v 0.4235376 0.07260919 0.2796196
v 0.40994 0.02739078 0.2308976
v -0.4308827 0.07260919 0.2426935
v -0.40994 0.02739078 0.2308977
v 0.4308827 0.07260919 0.2426935
v 0.40994 0.02739081 -0.2308976
v -0.4308827 0.07260922 -0.2426935
v -0.40994 0.02739081 -0.2308976
v 0.4308827 0.07260922 -0.2426935
v 0.402952 0.02739082 -0.2660289
v -0.4235376 0.07260923 -0.2796196
v -0.402952 0.02739082 -0.2660289
v 0.4235376 0.07260923 -0.2796196
v 0.3830517 0.02739082 -0.2958118
v -0.4026207 0.07260923 -0.310924
v -0.3830517 0.02739082 -0.2958118
v 0.4026207 0.07260923 -0.310924
v 0.3532688 0.02739082 -0.3157121
v -0.3713163 0.07260923 -0.3318409
v -0.3532688 0.02739082 -0.3157121
v 0.3713163 0.07260923 -0.3318409
v 0.3181375 0.02739082 -0.3227001
v -0.3343902 0.07260923 -0.339186
v -0.3181375 0.02739082 -0.3227001
v 0.3343902 0.07260923 -0.339186
v -0.4105384 0.1 -0.2710375
v -0.3902634 0.1 -0.3013811
v -0.417658 0.1 -0.2352448
v -0.3599198 0.1 -0.321656
v -0.3241271 0.1 -0.3287757
v -0.417658 0.09999999 0.2352448
v 0.3241271 0.1 -0.3287757
v 0.3599198 0.1 -0.321656
v -0.4105384 0.09999998 0.2710375
v 0.3902634 0.1 -0.3013811
v -0.3902634 0.09999998 0.3013811
v 0.4105384 0.1 -0.2710375
v -0.3599198 0.09999998 0.3216561
v 0.417658 0.1 -0.2352447
v -0.3241271 0.09999998 0.3287757
v 0.417658 0.09999999 0.2352448
v 0.3241271 0.09999998 0.3287757
v 0.4105384 0.09999998 0.2710375
v 0.3599198 0.09999998 0.321656
v 0.3902634 0.09999998 0.3013811
v -0.4105384 0.09999998 0.2710375
v -0.3444214 0.06888742 0.2659796
v -0.3902634 0.09999998 0.3013811
v -0.3623148 0.06888743 0.2392003
v -0.3176421 0.06888742 0.283873
v -0.417658 0.09999999 0.2352448
v -0.3599198 0.09999998 0.3216561
v -0.3685981 0.06888743 0.2076119
v -0.2860537 0.06888742 0.2901563
v -0.417658 0.1 -0.2352448
v -0.3241271 0.09999998 0.3287757
v -0.3685981 0.06888746 -0.2076119
v 0.2860537 0.06888742 0.2901563
v -0.4105384 0.1 -0.2710375
v 0.3241271 0.09999998 0.3287757
v -0.3623148 0.06888746 -0.2392003
v 0.3176421 0.06888742 0.2838729
v -0.3902634 0.1 -0.3013811
v 0.3599198 0.09999998 0.321656
v -0.3444214 0.06888746 -0.2659796
v 0.3444214 0.06888742 0.2659796
v -0.3599198 0.1 -0.321656
v 0.3902634 0.09999998 0.3013811
v -0.3176421 0.06888746 -0.2838729
v 0.3623148 0.06888743 0.2392003
v -0.3241271 0.1 -0.3287757
v 0.4105384 0.09999998 0.2710375
v -0.2860537 0.06888746 -0.2901563
v 0.3685981 0.06888743 0.2076119
v 0.3241271 0.1 -0.3287757
v 0.417658 0.09999999 0.2352448
v 0.2860537 0.06888746 -0.2901563
v 0.3685981 0.06888746 -0.2076119
v 0.3599198 0.1 -0.321656
v 0.417658 0.1 -0.2352447
v 0.3176421 0.06888746 -0.2838729
v 0.3623148 0.06888746 -0.2392003
v 0.3902634 0.1 -0.3013811
v 0.4105384 0.1 -0.2710375
v 0.3444214 0.06888746 -0.2659796
vt 0.2138603 0.9231563
vt 0.2138603 0.9231563
vt 0.2138603 0.9231563
vt 0.2138603 0.9231563
vt 0.2138603 0.9231563
vt 0.2138603 0.9231563
vt 0.2138603 0.9231563
vt 0.2138603 0.9231563
vt 0.2138603 0.9231563
vt 0.2138603 0.9231563
vt 0.2138603 0.9231563
vt 0.2138603 0.9231563
vt 0.2138603 0.9231563
vt 0.2138603 0.9231563
vt 0.2138603 0.9231563
vt 0.2138603 0.9231563
vt 0.2138603 0.9231563
vt 0.2138603 0.9231563
vt 0.2138603 0.9231563
vt 0.2138603 0.9231563
vt 0.2185754 0.9572479
vt 0.2185754 0.9572479
vt 0.2185754 0.9572479
vt 0.2185754 0.9572479
vt 0.2185754 0.9572479
vt 0.2185754 0.9572479
vt 0.2185754 0.9572479
vt 0.2185754 0.9572479
vt 0.2185754 0.9572479
vt 0.2185754 0.9572479
vt 0.2185754 0.9572479
vt 0.2185754 0.9572479
vt 0.2185754 0.9572479
vt 0.2185754 0.9572479
vt 0.2185754 0.9572479
vt 0.2185754 0.9572479
vt 0.2185754 0.9572479
vt 0.2185754 0.9572479
vt 0.2185754 0.9572479
vt 0.2185754 0.9572479
vt 0.2138603 0.9231563
vt 0.2138603 0.9231563
vt 0.2138603 0.9231563
vt 0.2138603 0.9231563
vt 0.2138603 0.9231563
vt 0.2138603 0.9231563
vt 0.2138603 0.9231563
vt 0.2138603 0.9231563
vt 0.2138603 0.9231563
vt 0.2138603 0.9231563
vt 0.2138603 0.9231563
vt 0.2138603 0.9231563
vt 0.2138603 0.9231563
vt 0.2138603 0.9231563
vt 0.2138603 0.9231563
vt 0.2138603 0.9231563
vt 0.2138603 0.9231563
vt 0.2138603 0.9231563
vt 0.2138603 0.9231563
vt 0.2138603 0.9231563
vt 0.2138603 0.9231563
vt 0.2138603 0.9231563
vt 0.2138603 0.9231563
vt 0.2138603 0.9231563
vt 0.2138603 0.9231563
vt 0.2138603 0.9231563
vt 0.2138603 0.9231563
vt 0.2138603 0.9231563
vt 0.2138603 0.9231563
vt 0.2138603 0.9231563
vt 0.2138603 0.9231563
vt 0.2138603 0.9231563
vt 0.2138603 0.9231563
vt 0.2138603 0.9231563
vt 0.2138603 0.9231563
vt 0.2138603 0.9231563
vt 0.2138603 0.9231563
vt 0.2138603 0.9231563
vt 0.2138603 0.9231563
vt 0.2138603 0.9231563
vt 0.2138603 0.9231563
vt 0.2138603 0.9231563
vt 0.2138603 0.9231563
vt 0.2138603 0.9231563
vt 0.2138603 0.9231563
vt 0.2138603 0.9231563
vt 0.2138603 0.9231563
vt 0.2138603 0.9231563
vt 0.2138603 0.9231563
vt 0.2138603 0.9231563
vt 0.2138603 0.9231563
vt 0.2138603 0.9231563
vt 0.2138603 0.9231563
vt 0.2138603 0.9231563
vt 0.2138603 0.9231563
vt 0.2138603 0.9231563
vt 0.2138603 0.9231563
vt 0.2138603 0.9231563
vt 0.2138603 0.9231563
vt 0.2138603 0.9231563
vt 0.2145373 0.9260308
vt 0.2145373 0.9260308
vt 0.2145373 0.9260308
vt 0.2145373 0.9260308
vt 0.2145373 0.9260308
vt 0.2145373 0.9260308
vt 0.2145373 0.9260308
vt 0.2145373 0.9260308
vt 0.2145373 0.9260308
vt 0.2145373 0.9260308
vt 0.2145373 0.9260308
vt 0.2145373 0.9260308
vt 0.2145373 0.9260308
vt 0.2145373 0.9260308
vt 0.2145373 0.9260308
vt 0.2145373 0.9260308
vt 0.2145373 0.9260308
vt 0.2145373 0.9260308
vt 0.2145373 0.9260308
vt 0.2145373 0.9260308
vt 0.2145373 0.9260308
vt 0.2145373 0.9260308
vt 0.2145373 0.9260308
vt 0.2145373 0.9260308
vt 0.2145373 0.9260308
vt 0.2145373 0.9260308
vt 0.2145373 0.9260308
vt 0.2145373 0.9260308
vt 0.2145373 0.9260308
vt 0.2145373 0.9260308
vt 0.2145373 0.9260308
vt 0.2145373 0.9260308
vt 0.2145373 0.9260308
vt 0.2145373 0.9260308
vt 0.2145373 0.9260308
vt 0.2145373 0.9260308
vt 0.2145373 0.9260308
vt 0.2145373 0.9260308
vt 0.2145373 0.9260308
vt 0.2145373 0.9260308
vn 0 -1 0
vn 0 -1 0
vn 0 -1 0
vn 0 -1 0
vn 0 -1 0
vn 0 -1 0
vn 0 -1 0
vn 0 -1 0
vn 0 -1 0
vn 0 -1 0
vn 0 -1 0
vn 0 -1 0
vn 0 -1 0
vn 0 -1 0
vn 0 -1 0
vn 0 -1 0
vn 0 -1 0
vn 0 -1 0
vn 0 -1 0
vn 0 -1 0
vn 0 1 0
vn 0 1 0
vn 0 1 0
vn 0 1 0
vn 0 1 0
vn 0 1 0
vn 0 1 0
vn 0 1 0
vn 0 1 0
vn 0 1 0
vn 0 1 0
vn 0 1 0
vn 0 1 0
vn 0 1 0
vn 0 1 0
vn 0 1 0
vn 0 1 0
vn 0 1 0
vn 0 1 0
vn 0 1 0
vn 0.04653713 -0.8098527 0.5847845
vn -0.04653713 -0.8098527 0.5847844
vn -0.1157467 0.007237551 0.9932525
vn 0.1157469 0.007237741 0.9932523
vn 0.2064451 -0.8156809 0.5404119
vn -0.4048207 0.007936205 0.9143617
vn -0.206445 -0.8156813 0.5404115
vn 0.4048207 0.007936484 0.9143617
vn 0.3897692 -0.8312736 0.3963133
vn -0.7120821 0.008334251 0.7020467
vn -0.3897692 -0.8312736 0.3963133
vn 0.7120821 0.008334558 0.7020468
vn 0.5184753 -0.829587 0.2072889
vn -0.9197563 0.008293876 0.3924022
vn -0.5184753 -0.8295871 0.2072889
vn 0.9197563 0.008294133 0.3924022
vn 0.5522438 -0.8323282 0.04750324
vn -0.9939481 0.008118221 0.1095499
vn -0.5522438 -0.8323281 0.04750326
vn 0.9939481 0.008118242 0.1095499
vn 0.5522438 -0.8323282 -0.0475034
vn -0.9939481 0.008118221 -0.10955
vn -0.5522439 -0.8323281 -0.04750339
vn 0.9939481 0.008118321 -0.1095499
vn 0.5184754 -0.8295869 -0.207289
vn -0.9197564 0.008294085 -0.3924021
vn -0.5184756 -0.8295869 -0.207289
vn 0.9197564 0.008293993 -0.3924019
vn 0.3897692 -0.8312736 -0.3963133
vn -0.7120821 0.008334496 -0.7020468
vn -0.3897693 -0.8312734 -0.3963135
vn 0.7120822 0.008334135 -0.7020466
vn 0.2064449 -0.8156811 -0.5404117
vn -0.4048205 0.007936474 -0.9143618
vn -0.206445 -0.8156809 -0.540412
vn 0.4048203 0.007936248 -0.9143618
vn 0.04653714 -0.8098527 -0.5847845
vn -0.115747 0.007237725 -0.9932523
vn -0.04653714 -0.8098527 -0.5847845
vn 0.1157467 0.00723762 -0.9932525
vn -0.3328962 0.9349489 -0.1226812
vn -0.2433373 0.9353954 -0.2565589
vn -0.3196704 0.9474078 -0.01514614
vn -0.1061486 0.9315934 -0.3476582
vn -0.001273626 0.9468252 -0.3217458
vn -0.3196703 0.9474078 0.01514621
vn 0.001273326 0.9468253 -0.3217456
vn 0.1061486 0.9315933 -0.3476585
vn -0.332896 0.934949 0.1226813
vn 0.2433376 0.9353953 -0.2565589
vn -0.2433375 0.9353953 0.2565591
vn 0.332896 0.934949 -0.122681
vn -0.1061487 0.9315933 0.3476584
vn 0.3196702 0.9474078 -0.01514605
vn -0.001273594 0.9468253 0.3217456
vn 0.3196704 0.9474078 0.0151462
vn 0.001273392 0.9468252 0.3217458
vn 0.3328958 0.934949 0.1226813
vn 0.1061487 0.9315935 0.347658
vn 0.2433373 0.9353953 0.2565591
vn -0.332896 0.934949 0.1226813
vn 0.1908707 0.961575 -0.1973374
vn -0.2433375 0.9353953 0.2565591
vn 0.2593673 0.9605908 -0.09996995
vn 0.1013444 0.9514508 -0.2906383
vn -0.3196703 0.9474078 0.01514621
vn -0.1061487 0.9315933 0.3476584
vn 0.285386 0.9581804 -0.02109972
vn 0.02006445 0.9412596 -0.3370872
vn -0.3196704 0.9474078 -0.01514614
vn -0.001273594 0.9468253 0.3217456
vn 0.285386 0.9581804 0.02109986
vn -0.02006464 0.9412596 -0.3370873
vn -0.3328962 0.9349489 -0.1226812
vn 0.001273392 0.9468252 0.3217458
vn 0.2593671 0.9605908 0.09997011
vn -0.1013446 0.9514508 -0.2906382
vn -0.2433373 0.9353954 -0.2565589
vn 0.1061487 0.9315935 0.347658
vn 0.1908706 0.9615749 0.1973376
vn -0.1908705 0.961575 -0.1973375
vn -0.1061486 0.9315934 -0.3476582
vn 0.2433373 0.9353953 0.2565591
vn 0.1013446 0.9514508 0.2906384
vn -0.2593672 0.9605908 -0.09996995
vn -0.001273626 0.9468252 -0.3217458
vn 0.3328958 0.934949 0.1226813
vn 0.02006454 0.9412596 0.3370873
vn -0.2853859 0.9581804 -0.02109974
vn 0.001273326 0.9468253 -0.3217456
vn 0.3196704 0.9474078 0.0151462
vn -0.02006454 0.9412596 0.3370874
vn -0.2853859 0.9581804 0.02109987
vn 0.1061486 0.9315933 -0.3476585
vn 0.3196702 0.9474078 -0.01514605
vn -0.1013444 0.9514508 0.2906384
vn -0.2593671 0.9605908 0.09997004
vn 0.2433376 0.9353953 -0.2565589
vn 0.332896 0.934949 -0.122681
vn -0.1908705 0.9615749 0.1973377
g Tray_0
f 3/3/3 2/2/2 1/1/1
f 1/1/1 4/4/4 3/3/3
f 1/1/1 5/5/5 4/4/4
f 1/1/1 6/6/6 5/5/5
f 6/6/6 7/7/7 5/5/5
f 6/6/6 8/8/8 7/7/7
f 8/8/8 9/9/9 7/7/7
f 9/9/9 10/10/10 7/7/7
f 9/9/9 11/11/11 10/10/10
f 11/11/11 12/12/12 10/10/10
f 11/11/11 13/13/13 12/12/12
f 13/13/13 14/14/14 12/12/12
f 13/13/13 15/15/15 14/14/14
f 15/15/15 16/16/16 14/14/14
f 15/15/15 17/17/17 16/16/16
f 17/17/17 18/18/18 16/16/16
f 17/17/17 19/19/19 18/18/18
f 17/17/17 20/20/20 19/19/19
f 23/23/23 22/22/22 21/21/21
f 21/21/21 24/24/24 23/23/23
f 21/21/21 25/25/25 24/24/24
f 25/25/25 26/26/26 24/24/24
f 25/25/25 27/27/27 26/26/26
f 25/25/25 28/28/28 27/27/27
f 28/28/28 29/29/29 27/27/27
f 29/29/29 30/30/30 27/27/27
f 29/29/29 31/31/31 30/30/30
f 31/31/31 32/32/32 30/30/30
f 31/31/31 33/33/33 32/32/32
f 33/33/33 34/34/34 32/32/32
f 33/33/33 35/35/35 34/34/34
f 35/35/35 36/36/36 34/34/34
f 35/35/35 37/37/37 36/36/36
f 37/37/37 38/38/38 36/36/36
f 37/37/37 39/39/39 38/38/38
f 37/37/37 40/40/40 39/39/39
f 43/43/43 42/42/42 41/41/41
f 44/44/44 43/43/43 41/41/41
f 41/41/41 45/45/45 44/44/44
f 43/43/43 46/46/46 42/42/42
f 46/46/46 47/47/47 42/42/42
f 45/45/45 48/48/48 44/44/44
f 45/45/45 49/49/49 48/48/48
f 46/46/46 50/50/50 47/47/47
f 50/50/50 51/51/51 47/47/47
f 49/49/49 52/52/52 48/48/48
f 49/49/49 53/53/53 52/52/52
f 50/50/50 54/54/54 51/51/51
f 54/54/54 55/55/55 51/51/51
f 53/53/53 56/56/56 52/52/52
f 53/53/53 57/57/57 56/56/56
f 54/54/54 58/58/58 55/55/55
f 58/58/58 59/59/59 55/55/55
f 57/57/57 60/60/60 56/56/56
f 60/60/60 57/57/57 61/61/61
f 58/58/58 62/62/62 59/59/59
f 62/62/62 63/63/63 59/59/59
f 64/64/64 60/60/60 61/61/61
f 61/61/61 65/65/65 64/64/64
f 63/63/63 62/62/62 66/66/66
f 67/67/67 63/63/63 66/66/66
f 65/65/65 68/68/68 64/64/64
f 65/65/65 69/69/69 68/68/68
f 67/67/67 66/66/66 70/70/70
f 71/71/71 67/67/67 70/70/70
f 69/69/69 72/72/72 68/68/68
f 69/69/69 73/73/73 72/72/72
f 71/71/71 70/70/70 74/74/74
f 75/75/75 71/71/71 74/74/74
f 73/73/73 76/76/76 72/72/72
f 73/73/73 77/77/77 76/76/76
f 75/75/75 74/74/74 78/78/78
f 79/79/79 75/75/75 78/78/78
f 80/80/80 77/77/77 79/79/79
f 77/77/77 80/80/80 76/76/76
f 78/78/78 80/80/80 79/79/79
f 66/66/66 81/81/81 70/70/70
f 81/81/81 82/82/82 70/70/70
f 70/70/70 82/82/82 74/74/74
f 83/83/83 81/81/81 66/66/66
f 82/82/82 84/84/84 74/74/74
f 74/74/74 84/84/84 78/78/78
f 62/62/62 83/83/83 66/66/66
f 84/84/84 85/85/85 78/78/78
f 78/78/78 85/85/85 80/80/80
f 86/86/86 83/83/83 62/62/62
f 85/85/85 87/87/87 80/80/80
f 80/80/80 87/87/87 76/76/76
f 58/58/58 86/86/86 62/62/62
f 87/87/87 88/88/88 76/76/76
f 89/89/89 86/86/86 58/58/58
f 76/76/76 88/88/88 72/72/72
f 54/54/54 89/89/89 58/58/58
f 88/88/88 90/90/90 72/72/72
f 91/91/91 89/89/89 54/54/54
f 72/72/72 90/90/90 68/68/68
f 50/50/50 91/91/91 54/54/54
f 90/90/90 92/92/92 68/68/68
f 93/93/93 91/91/91 50/50/50
f 68/68/68 92/92/92 64/64/64
f 46/46/46 93/93/93 50/50/50
f 92/92/92 94/94/94 64/64/64
f 95/95/95 93/93/93 46/46/46
f 64/64/64 94/94/94 60/60/60
f 43/43/43 95/95/95 46/46/46
f 94/94/94 96/96/96 60/60/60
f 97/97/97 95/95/95 43/43/43
f 60/60/60 96/96/96 56/56/56
f 44/44/44 97/97/97 43/43/43
f 96/96/96 98/98/98 56/56/56
f 99/99/99 97/97/97 44/44/44
f 56/56/56 98/98/98 52/52/52
f 48/48/48 99/99/99 44/44/44
f 98/98/98 100/100/100 52/52/52
f 100/100/100 99/99/99 48/48/48
f 52/52/52 100/100/100 48/48/48
f 103/103/103 102/102/102 101/101/101
f 102/102/102 104/104/104 101/101/101
f 105/105/105 102/102/102 103/103/103
f 101/101/101 104/104/104 106/106/106
f 107/107/107 105/105/105 103/103/103
f 104/104/104 108/108/108 106/106/106
f 109/109/109 105/105/105 107/107/107
f 106/106/106 108/108/108 110/110/110
f 111/111/111 109/109/109 107/107/107
f 108/108/108 112/112/112 110/110/110
f 113/113/113 109/109/109 111/111/111
f 110/110/110 112/112/112 114/114/114
f 115/115/115 113/113/113 111/111/111
f 112/112/112 116/116/116 114/114/114
f 117/117/117 113/113/113 115/115/115
f 114/114/114 116/116/116 118/118/118
f 119/119/119 117/117/117 115/115/115
f 116/116/116 120/120/120 118/118/118
f 121/121/121 117/117/117 119/119/119
f 118/118/118 120/120/120 122/122/122
f 123/123/123 121/121/121 119/119/119
f 120/120/120 124/124/124 122/122/122
f 125/125/125 121/121/121 123/123/123
f 122/122/122 124/124/124 126/126/126
f 127/127/127 125/125/125 123/123/123
f 124/124/124 128/128/128 126/126/126
f 129/129/129 125/125/125 127/127/127
f 126/126/126 128/128/128 130/130/130
f 131/131/131 129/129/129 127/127/127
f 128/128/128 132/132/132 130/130/130
f 133/133/133 129/129/129 131/131/131
f 130/130/130 132/132/132 134/134/134
f 135/135/135 133/133/133 131/131/131
f 132/132/132 136/136/136 134/134/134
f 137/137/137 133/133/133 135/135/135
f 134/134/134 136/136/136 138/138/138
f 139/139/139 137/137/137 135/135/135
f 136/136/136 140/140/140 138/138/138
f 140/140/140 137/137/137 139/139/139
f 138/138/138 140/140/140 139/139/139
